<?xml version="1.0" encoding="UTF-8" standalone="no"?>
<!-- Created with Inkscape (http://www.inkscape.org/) -->

<svg
   xmlns:dc="http://purl.org/dc/elements/1.1/"
   xmlns:cc="http://creativecommons.org/ns#"
   xmlns:rdf="http://www.w3.org/1999/02/22-rdf-syntax-ns#"
   xmlns:svg="http://www.w3.org/2000/svg"
   xmlns="http://www.w3.org/2000/svg"
   xmlns:xlink="http://www.w3.org/1999/xlink"
   xmlns:sodipodi="http://sodipodi.sourceforge.net/DTD/sodipodi-0.dtd"
   xmlns:inkscape="http://www.inkscape.org/namespaces/inkscape"
   width="160"
   height="90"
   id="svg2"
   version="1.1"
   inkscape:version="0.48.5 r10040"
   sodipodi:docname="hsplit.svg">
  <defs
     id="defs4">
    <radialGradient
       r="3.5"
       fy="2.7222223"
       fx="7.7222223"
       cy="2.7222223"
       cx="7.7222223"
       gradientTransform="matrix(1,0,0,0.71428571,0,1)"
       gradientUnits="userSpaceOnUse"
       id="radialGradient4783"
       xlink:href="#linearGradient4041"
       inkscape:collect="always" />
    <linearGradient
       id="linearGradient4041">
      <stop
         style="stop-color:#cccccc;stop-opacity:1;"
         offset="0"
         id="stop4043" />
      <stop
         style="stop-color:#000000;stop-opacity:0;"
         offset="1"
         id="stop4045" />
    </linearGradient>
    <radialGradient
       r="3.5"
       fy="2.7222223"
       fx="7.7222223"
       cy="2.7222223"
       cx="7.7222223"
       gradientTransform="matrix(1,0,0,0.71428571,0,1)"
       gradientUnits="userSpaceOnUse"
       id="radialGradient4817"
       xlink:href="#linearGradient4041-2"
       inkscape:collect="always" />
    <linearGradient
       id="linearGradient4041-2">
      <stop
         style="stop-color:#cccccc;stop-opacity:1;"
         offset="0"
         id="stop4043-5" />
      <stop
         style="stop-color:#000000;stop-opacity:0;"
         offset="1"
         id="stop4045-9" />
    </linearGradient>
    <radialGradient
       r="3.5"
       fy="2.7222223"
       fx="7.7222223"
       cy="2.7222223"
       cx="7.7222223"
       gradientTransform="matrix(1,0,0,0.71428571,0,1)"
       gradientUnits="userSpaceOnUse"
       id="radialGradient4817-4"
       xlink:href="#linearGradient4041-4"
       inkscape:collect="always" />
    <linearGradient
       id="linearGradient4041-4">
      <stop
         style="stop-color:#cccccc;stop-opacity:1;"
         offset="0"
         id="stop4043-4" />
      <stop
         style="stop-color:#000000;stop-opacity:0;"
         offset="1"
         id="stop4045-7" />
    </linearGradient>
    <radialGradient
       r="3.5"
       fy="2.7222223"
       fx="7.7222223"
       cy="2.7222223"
       cx="7.7222223"
       gradientTransform="matrix(1,0,0,0.71428571,0,1)"
       gradientUnits="userSpaceOnUse"
       id="radialGradient4783-5"
       xlink:href="#linearGradient4041-6"
       inkscape:collect="always" />
    <linearGradient
       id="linearGradient4041-6">
      <stop
         style="stop-color:#cccccc;stop-opacity:1;"
         offset="0"
         id="stop4043-1" />
      <stop
         style="stop-color:#000000;stop-opacity:0;"
         offset="1"
         id="stop4045-8" />
    </linearGradient>
    <radialGradient
       r="3.5"
       fy="2.7222223"
       fx="7.7222223"
       cy="2.7222223"
       cx="7.7222223"
       gradientTransform="matrix(1,0,0,0.71428571,0,1)"
       gradientUnits="userSpaceOnUse"
       id="radialGradient4817-8"
       xlink:href="#linearGradient4041-2-0"
       inkscape:collect="always" />
    <linearGradient
       id="linearGradient4041-2-0">
      <stop
         style="stop-color:#cccccc;stop-opacity:1;"
         offset="0"
         id="stop4043-5-1" />
      <stop
         style="stop-color:#000000;stop-opacity:0;"
         offset="1"
         id="stop4045-9-4" />
    </linearGradient>
    <radialGradient
       r="3.5"
       fy="2.7222223"
       fx="7.7222223"
       cy="2.7222223"
       cx="7.7222223"
       gradientTransform="matrix(1,0,0,0.71428571,0,1)"
       gradientUnits="userSpaceOnUse"
       id="radialGradient4817-4-5"
       xlink:href="#linearGradient4041-4-6"
       inkscape:collect="always" />
    <linearGradient
       id="linearGradient4041-4-6">
      <stop
         style="stop-color:#cccccc;stop-opacity:1;"
         offset="0"
         id="stop4043-4-6" />
      <stop
         style="stop-color:#000000;stop-opacity:0;"
         offset="1"
         id="stop4045-7-5" />
    </linearGradient>
  </defs>
  <sodipodi:namedview
     id="base"
     pagecolor="#ffffff"
     bordercolor="#666666"
     borderopacity="1.0"
     inkscape:pageopacity="0.0"
     inkscape:pageshadow="2"
     inkscape:zoom="7.8306214"
     inkscape:cx="78.659986"
     inkscape:cy="41.283388"
     inkscape:document-units="px"
     inkscape:current-layer="layer1"
     showgrid="true"
     inkscape:window-width="1920"
     inkscape:window-height="1025"
     inkscape:window-x="-2"
     inkscape:window-y="32"
     inkscape:window-maximized="1"
     showguides="true"
     inkscape:snap-center="true"
     inkscape:snap-object-midpoints="true">
    <inkscape:grid
       type="xygrid"
       id="grid2985"
       empspacing="5"
       visible="true"
       enabled="true"
       snapvisiblegridlinesonly="true" />
    <sodipodi:guide
       position="0,0"
       orientation="0,160"
       id="guide4480" />
    <sodipodi:guide
       position="160,0"
       orientation="-90,0"
       id="guide4482" />
    <sodipodi:guide
       position="160,90"
       orientation="0,-160"
       id="guide4484" />
    <sodipodi:guide
       position="0,90"
       orientation="90,0"
       id="guide4486" />
  </sodipodi:namedview>
  <metadata
     id="metadata7">
    <rdf:RDF>
      <cc:Work
         rdf:about="">
        <dc:format>image/svg+xml</dc:format>
        <dc:type
           rdf:resource="http://purl.org/dc/dcmitype/StillImage" />
        <dc:title />
      </cc:Work>
    </rdf:RDF>
  </metadata>
  <g
     inkscape:label="Layer 1"
     inkscape:groupmode="layer"
     id="layer1"
     transform="translate(0,-962.36218)">
    <path
       style="color:#000000;fill:#000000;fill-opacity:1;fill-rule:evenodd;stroke:none;stroke-width:3;marker:none;visibility:visible;display:inline;overflow:visible;enable-background:accumulate"
       d="M 0 45 L 0 90 L 160 90 L 160 45 L 0 45 z M 63.375 52.875 C 66.369777 52.87503 68.723941 53.570342 70.46875 54.9375 C 72.213521 56.291693 73.093728 58.119816 73.09375 60.4375 C 73.093728 62.052104 72.611958 63.411477 71.6875 64.53125 C 70.763002 65.638038 69.455711 66.414079 67.75 66.84375 C 69.638003 67.247411 71.101543 68.067723 72.15625 69.34375 C 73.223937 70.619804 73.781228 72.21876 73.78125 74.09375 C 73.781228 76.97136 72.791645 79.174483 70.8125 80.75 C 68.833316 82.325521 66.020819 83.124999 62.375 83.125 C 61.151032 83.124999 59.864575 82.997395 58.5625 82.75 C 57.273432 82.515625 55.942704 82.169271 54.5625 81.6875 L 54.5625 77.875 C 55.656246 78.513025 56.854161 78.986983 58.15625 79.3125 C 59.458325 79.638024 60.83072 79.812503 62.25 79.8125 C 64.723945 79.812503 66.585922 79.320316 67.875 78.34375 C 69.177066 77.367193 69.843732 75.955736 69.84375 74.09375 C 69.843732 72.37501 69.24217 71.026053 68.03125 70.0625 C 66.833318 69.085951 65.148424 68.593764 63 68.59375 L 59.625 68.59375 L 59.625 65.34375 L 63.15625 65.34375 C 65.096341 65.343767 66.596339 64.955747 67.625 64.1875 C 68.653629 63.406269 69.156232 62.302104 69.15625 60.84375 C 69.156232 59.346377 68.630191 58.200545 67.5625 57.40625 C 66.507798 56.598984 64.979153 56.187526 63 56.1875 C 61.91926 56.187526 60.76822 56.296901 59.53125 56.53125 C 58.294264 56.765651 56.92187 57.130234 55.4375 57.625 L 55.4375 54.125 C 56.93489 53.708362 58.35416 53.395863 59.65625 53.1875 C 60.971345 52.979196 62.216135 52.87503 63.375 52.875 z M 80.90625 53.40625 L 89.03125 53.40625 C 94.682274 53.406279 98.825499 54.580757 101.46875 56.9375 C 104.11195 59.281273 105.43747 62.93752 105.4375 67.9375 C 105.43747 72.963551 104.09372 76.674485 101.4375 79.03125 C 98.781228 81.388022 94.656232 82.5625 89.03125 82.5625 L 80.90625 82.5625 L 80.90625 53.40625 z M 84.875 56.65625 L 84.875 79.3125 L 89.625 79.3125 C 93.648421 79.312503 96.606751 78.416671 98.46875 76.59375 C 100.34373 74.770841 101.28123 71.869802 101.28125 67.9375 C 101.28123 64.031269 100.34373 61.184917 98.46875 59.375 C 96.606751 57.552108 93.648421 56.656276 89.625 56.65625 L 84.875 56.65625 z "
       transform="translate(0,962.36218)"
       id="rect5577" />
    <g
       style="font-size:40px;font-style:normal;font-weight:normal;line-height:125%;letter-spacing:0px;word-spacing:0px;fill:#000000;fill-opacity:1;stroke:none;font-family:Sans"
       id="text6087">
      <path
         d="m 59.257812,996.88556 13.769532,0 0,3.32034 -18.515625,0 0,-3.32034 c 1.497391,-1.54948 3.53515,-3.6263 6.113281,-6.23047 2.591134,-2.61718 4.218737,-4.30337 4.882812,-5.05859 1.263006,-1.41926 2.141912,-2.61717 2.636719,-3.59375 0.507796,-0.98957 0.761702,-1.95962 0.761719,-2.91016 -1.7e-5,-1.54946 -0.546892,-2.81248 -1.640625,-3.78906 -1.080744,-0.97654 -2.493503,-1.46482 -4.238281,-1.46485 -1.23699,3e-5 -2.545582,0.21487 -3.925782,0.64454 -1.367193,0.42971 -2.832035,1.08075 -4.394531,1.95312 l 0,-3.98437 c 1.588537,-0.638 3.072911,-1.11977 4.453125,-1.44532 1.3802,-0.32549 2.643219,-0.48825 3.789063,-0.48828 3.020819,3e-5 5.42967,0.75524 7.226562,2.26563 1.796855,1.51044 2.695291,3.52867 2.695313,6.05468 -2.2e-5,1.19794 -0.227886,2.33726 -0.683594,3.41797 -0.442728,1.06773 -1.25653,2.33075 -2.441406,3.78907 -0.325539,0.37761 -1.360694,1.47136 -3.105469,3.28125 -1.744805,1.79688 -4.20574,4.31641 -7.382813,7.55859"
         style=""
         id="path3627" />
      <path
         d="m 84.921875,974.2879 0,22.67578 4.765625,0 c 4.023421,1e-5 6.966126,-0.91145 8.828125,-2.73437 1.874975,-1.82291 2.812475,-4.70051 2.812505,-8.63281 -3e-5,-3.90623 -0.93753,-6.7643 -2.812505,-8.57422 -1.861999,-1.82289 -4.804704,-2.73435 -8.828125,-2.73438 l -4.765625,0 m -3.945313,-3.24218 8.105469,0 c 5.651024,2e-5 9.798156,1.17841 12.441409,3.53515 2.6432,2.34377 3.96481,6.01565 3.96484,11.01563 -3e-5,5.02605 -1.32815,8.71745 -3.98437,11.07422 -2.656276,2.35677 -6.796896,3.53518 -12.421879,3.53518 l -8.105469,0 0,-29.16018"
         style=""
         id="path3629" />
    </g>
  </g>
</svg>
