<?xml version="1.0" encoding="UTF-8" standalone="no"?>
<!-- Created with Inkscape (http://www.inkscape.org/) -->

<svg
   xmlns:dc="http://purl.org/dc/elements/1.1/"
   xmlns:cc="http://creativecommons.org/ns#"
   xmlns:rdf="http://www.w3.org/1999/02/22-rdf-syntax-ns#"
   xmlns:svg="http://www.w3.org/2000/svg"
   xmlns="http://www.w3.org/2000/svg"
   version="1.1"
   width="40"
   height="40"
   id="svg3062">
  <defs
     id="defs3064" />
  <metadata
     id="metadata3067">
    <rdf:RDF>
      <cc:Work
         rdf:about="">
        <dc:format>image/svg+xml</dc:format>
        <dc:type
           rdf:resource="http://purl.org/dc/dcmitype/StillImage" />
        <dc:title></dc:title>
      </cc:Work>
    </rdf:RDF>
  </metadata>
  <g
     transform="translate(0,-1012.3622)"
     id="layer1">
    <path
       d="m 14.933335,1028.1955 v 15 q 0,0.3646 -0.234375,0.599 -0.234375,0.2344 -0.598958,0.2344 h -1.666667 q -0.364584,0 -0.598959,-0.2344 -0.234375,-0.2344 -0.234375,-0.599 v -15 q 0,-0.3645 0.234375,-0.5989 0.234375,-0.2344 0.598959,-0.2344 h 1.666667 q 0.364583,0 0.598958,0.2344 0.234375,0.2344 0.234375,0.5989 z m 6.666668,0 v 15 q 0,0.3646 -0.234375,0.599 -0.234376,0.2344 -0.598959,0.2344 h -1.666667 q -0.364583,0 -0.598958,-0.2344 -0.234375,-0.2344 -0.234375,-0.599 v -15 q 0,-0.3645 0.234375,-0.5989 0.234375,-0.2344 0.598958,-0.2344 h 1.666667 q 0.364583,0 0.598959,0.2344 0.234375,0.2344 0.234375,0.5989 z m 6.666667,0 v 15 q 0,0.3646 -0.234375,0.599 -0.234375,0.2344 -0.598958,0.2344 H 25.76667 q -0.364584,0 -0.598959,-0.2344 -0.234375,-0.2344 -0.234375,-0.599 v -15 q 0,-0.3645 0.234375,-0.5989 0.234375,-0.2344 0.598959,-0.2344 h 1.666667 q 0.364583,0 0.598958,0.2344 0.234375,0.2344 0.234375,0.5989 z m 3.333334,18.8542 v -24.6875 H 8.2666675 v 24.6875 q 0,0.5729 0.1822917,1.0547 0.1822917,0.4818 0.3776042,0.7031 0.1953125,0.2214 0.2734376,0.2214 H 30.76667 q 0.07813,0 0.273438,-0.2214 0.195312,-0.2213 0.377604,-0.7031 0.182292,-0.4818 0.182292,-1.0547 z M 14.100002,1019.0289 H 25.76667 l -1.25,-3.0469 q -0.182292,-0.2344 -0.442709,-0.2865 h -8.255209 q -0.260417,0.052 -0.442709,0.2865 z m 24.166669,0.8333 v 1.6667 q 0,0.3646 -0.234375,0.5989 -0.234375,0.2344 -0.598958,0.2344 h -2.5 v 24.6875 q 0,2.1615 -1.223959,3.737 -1.223958,1.5755 -2.942709,1.5755 H 9.100001 q -1.7187503,0 -2.9427088,-1.5234 -1.2239584,-1.5235 -1.2239584,-3.6849 v -24.7917 H 2.4333335 q -0.3645834,0 -0.5989585,-0.2344 Q 1.6,1021.8935 1.6,1021.5289 v -1.6667 q 0,-0.3646 0.234375,-0.599 0.2343751,-0.2343 0.5989585,-0.2343 h 8.0468755 l 1.822917,-4.349 q 0.390625,-0.9635 1.406251,-1.6406 1.015625,-0.6771 2.057291,-0.6771 h 8.333335 q 1.041667,0 2.057292,0.6771 1.015625,0.6771 1.40625,1.6406 l 1.822917,4.349 h 8.046876 q 0.364583,0 0.598958,0.2343 0.234375,0.2344 0.234375,0.599 z"
       id="path3745" />
  </g>
</svg>
