<?xml version="1.0" encoding="UTF-8" standalone="no"?>
<!-- Created with Inkscape (http://www.inkscape.org/) -->

<svg
   xmlns:dc="http://purl.org/dc/elements/1.1/"
   xmlns:cc="http://creativecommons.org/ns#"
   xmlns:rdf="http://www.w3.org/1999/02/22-rdf-syntax-ns#"
   xmlns:svg="http://www.w3.org/2000/svg"
   xmlns="http://www.w3.org/2000/svg"
   xmlns:sodipodi="http://sodipodi.sourceforge.net/DTD/sodipodi-0.dtd"
   xmlns:inkscape="http://www.inkscape.org/namespaces/inkscape"
   version="1.1"
   width="40"
   height="40"
   id="svg3062"
   inkscape:version="0.48.4 r9939"
   sodipodi:docname="clear.svg">
  <sodipodi:namedview
     pagecolor="#ffffff"
     bordercolor="#666666"
     borderopacity="1"
     objecttolerance="10"
     gridtolerance="10"
     guidetolerance="10"
     inkscape:pageopacity="0"
     inkscape:pageshadow="2"
     inkscape:window-width="1855"
     inkscape:window-height="1056"
     id="namedview7"
     showgrid="false"
     inkscape:zoom="8.34386"
     inkscape:cx="22.756862"
     inkscape:cy="15.163342"
     inkscape:window-x="65"
     inkscape:window-y="24"
     inkscape:window-maximized="1"
     inkscape:current-layer="svg3062" />
  <defs
     id="defs3064" />
  <metadata
     id="metadata3067">
    <rdf:RDF>
      <cc:Work
         rdf:about="">
        <dc:format>image/svg+xml</dc:format>
        <dc:type
           rdf:resource="http://purl.org/dc/dcmitype/StillImage" />
        <dc:title />
      </cc:Work>
    </rdf:RDF>
  </metadata>
  <g
     id="layer1">
    <path
       d="m 14.999999,15.8333 0,15 c 0,0.24306 -0.07813,0.44273 -0.234375,0.599 -0.15625,0.15626 -0.355902,0.2344 -0.598958,0.2344 l -1.666667,0 c -0.243055,0 -0.442708,-0.0781 -0.598958,-0.2344 -0.15625,-0.15627 -0.234375,-0.35594 -0.234375,-0.599 l 0,-15 c 0,-0.243 0.07813,-0.44264 0.234375,-0.5989 C 12.057291,15.07813 12.256944,15 12.499999,15 l 1.666667,0 c 0.243056,0 0.442708,0.0781 0.598958,0.2344 0.15625,0.15626 0.234375,0.3559 0.234375,0.5989 z m 6.666668,0 0,15 c 0,0.24306 -0.07813,0.44273 -0.234375,0.599 -0.15625,0.15626 -0.355903,0.2344 -0.598959,0.2344 l -1.666667,0 c -0.243055,0 -0.442708,-0.0781 -0.598958,-0.2344 -0.15625,-0.15627 -0.234375,-0.35594 -0.234375,-0.599 l 0,-15 c 0,-0.243 0.07813,-0.44264 0.234375,-0.5989 C 18.723958,15.07813 18.923611,15 19.166666,15 l 1.666667,0 c 0.243056,0 0.442709,0.0781 0.598959,0.2344 0.15625,0.15626 0.234375,0.3559 0.234375,0.5989 z m 6.666667,0 0,15 c 0,0.24306 -0.07813,0.44273 -0.234375,0.599 -0.15625,0.15626 -0.355902,0.2344 -0.598958,0.2344 l -1.666667,0 c -0.243056,0 -0.442709,-0.0781 -0.598959,-0.2344 C 25.078125,31.27603 25,31.07636 25,30.8333 l 0,-15 c 0,-0.243 0.07813,-0.44264 0.234375,-0.5989 C 25.390625,15.07813 25.590278,15 25.833334,15 l 1.666667,0 c 0.243056,0 0.442708,0.0781 0.598958,0.2344 0.15625,0.15626 0.234375,0.3559 0.234375,0.5989 z m 3.333334,18.8542 0,-24.6875 -23.3333359,0 0,24.6875 c 0,0.38193 0.060764,0.7335 0.1822917,1.0547 0.1215278,0.3212 0.2473958,0.55556 0.3776042,0.7031 0.1302083,0.1476 0.2213542,0.2214 0.2734376,0.2214 l 21.6666684,0 c 0.05209,0 0.143233,-0.0738 0.273438,-0.2214 0.130208,-0.14754 0.256076,-0.3819 0.377604,-0.7031 0.121528,-0.3212 0.182292,-0.67277 0.182292,-1.0547 z M 14.166666,6.6667 l 11.666668,0 -1.25,-3.0469 C 24.461806,3.46353 24.314237,3.36803 24.140625,3.3333 l -8.255209,0 C 15.711805,3.368 15.564235,3.46346 15.442707,3.6198 z M 38.333335,7.5 l 0,1.6667 c 0,0.24306 -0.07813,0.4427 -0.234375,0.5989 C 37.94271,9.92186 37.743058,10 37.500002,10 l -2.5,0 0,24.6875 c 0,1.441 -0.407986,2.68666 -1.223959,3.737 C 32.960071,39.47483 31.979168,40 30.833334,40 L 9.1666656,40 C 8.020832,40 7.0399291,39.4922 6.2239568,38.4766 5.4079845,37.46093 4.9999984,36.23263 4.9999984,34.7917 l 0,-24.7917 -2.5000003,0 C 2.2569425,10 2.0572897,9.9219 1.9010396,9.7656 1.7447896,9.6094 1.6666646,9.40976 1.6666646,9.1667 l 0,-1.6667 c 0,-0.24307 0.078125,-0.44274 0.234375,-0.599 C 2.0572897,6.7448 2.2569448,6.6677504 2.4999981,6.6667 l 8.0468759,0 1.822916,-4.349 C 12.630207,1.67536 13.098957,1.1285 13.776041,0.6771 14.453125,0.2257 15.138888,0 15.833332,0 l 8.333335,0 c 0.694445,0 1.380209,0.2257 2.057292,0.6771 0.677084,0.4514 1.145834,0.99826 1.40625,1.6406 l 1.822917,4.349 8.046876,0 c 0.243056,0 0.442708,0.0781 0.598958,0.2343 0.15625,0.15626 0.234375,0.35593 0.234375,0.599 z"
       id="path3745"
       inkscape:connector-curvature="0"
       sodipodi:nodetypes="ssssssssssssssssssssssssssssssssssssssssccsscsscsscccccccsscscsssscscscsscsccssssccscs" />
  </g>
</svg>
