<?xml version="1.0" encoding="UTF-8" standalone="no"?>
<!-- Created with Inkscape (http://www.inkscape.org/) -->

<svg
   xmlns:dc="http://purl.org/dc/elements/1.1/"
   xmlns:cc="http://creativecommons.org/ns#"
   xmlns:rdf="http://www.w3.org/1999/02/22-rdf-syntax-ns#"
   xmlns:svg="http://www.w3.org/2000/svg"
   xmlns="http://www.w3.org/2000/svg"
   xmlns:sodipodi="http://sodipodi.sourceforge.net/DTD/sodipodi-0.dtd"
   xmlns:inkscape="http://www.inkscape.org/namespaces/inkscape"
   width="40"
   height="40"
   id="svg2"
   version="1.1"
   inkscape:version="0.48.4 r9939"
   sodipodi:docname="color.svg">
  <defs
     id="defs4" />
  <sodipodi:namedview
     id="base"
     pagecolor="#ffffff"
     bordercolor="#666666"
     borderopacity="1.0"
     inkscape:pageopacity="0.0"
     inkscape:pageshadow="2"
     inkscape:zoom="11.2"
     inkscape:cx="0.596501"
     inkscape:cy="12.878378"
     inkscape:document-units="px"
     inkscape:current-layer="layer1"
     showgrid="true"
     inkscape:snap-grids="false"
     inkscape:object-nodes="true"
     inkscape:snap-object-midpoints="true"
     inkscape:snap-center="true"
     inkscape:snap-bbox="true"
     inkscape:window-width="1855"
     inkscape:window-height="1056"
     inkscape:window-x="65"
     inkscape:window-y="24"
     inkscape:window-maximized="1">
    <inkscape:grid
       type="xygrid"
       id="grid2985"
       empspacing="5"
       visible="true"
       enabled="true"
       snapvisiblegridlinesonly="true" />
  </sodipodi:namedview>
  <metadata
     id="metadata7">
    <rdf:RDF>
      <cc:Work
         rdf:about="">
        <dc:format>image/svg+xml</dc:format>
        <dc:type
           rdf:resource="http://purl.org/dc/dcmitype/StillImage" />
        <dc:title />
      </cc:Work>
    </rdf:RDF>
  </metadata>
  <g
     inkscape:label="Layer 1"
     inkscape:groupmode="layer"
     id="layer1"
     transform="translate(0,-1012.3622)">
    <path
       sodipodi:type="arc"
       style="opacity:1;fill:#ff0000;fill-opacity:0.60000001999999997;fill-rule:evenodd;stroke:#800000;stroke-opacity:1"
       id="path4960-9"
       sodipodi:cx="12.5"
       sodipodi:cy="12.5"
       sodipodi:rx="12.5"
       sodipodi:ry="12.5"
       d="M 25,12.5 C 25,19.403559 19.403559,25 12.5,25 5.5964406,25 0,19.403559 0,12.5 0,5.5964406 5.5964406,0 12.5,0 19.403559,0 25,5.5964406 25,12.5 z"
       transform="translate(0.572,1025.3622)" />
    <path
       sodipodi:type="arc"
       style="opacity:1;fill:#0000ff;fill-opacity:0.60000001999999997;fill-rule:evenodd;stroke:#000080;stroke-opacity:1"
       id="path4960"
       sodipodi:cx="12.5"
       sodipodi:cy="12.5"
       sodipodi:rx="12.5"
       sodipodi:ry="12.5"
       d="M 25,12.5 C 25,19.403559 19.403559,25 12.5,25 5.5964406,25 0,19.403559 0,12.5 0,5.5964406 5.5964406,0 12.5,0 19.403559,0 25,5.5964406 25,12.5 z"
       transform="translate(7.5002035,1013.3622)" />
    <path
       sodipodi:type="arc"
       style="opacity:1;fill:#00ff00;fill-opacity:0.60000001999999997;fill-rule:evenodd;stroke:#008000;stroke-opacity:1"
       id="path4960-5"
       sodipodi:cx="12.5"
       sodipodi:cy="12.5"
       sodipodi:rx="12.5"
       sodipodi:ry="12.5"
       d="M 25,12.5 C 25,19.403559 19.403559,25 12.5,25 5.5964406,25 0,19.403559 0,12.5 0,5.5964406 5.5964406,0 12.5,0 19.403559,0 25,5.5964406 25,12.5 z"
       transform="translate(14.428406,1025.3622)" />
  </g>
</svg>
