<?xml version="1.0" encoding="UTF-8" standalone="no"?>
<!-- Created with Inkscape (http://www.inkscape.org/) -->
<svg id="svg2" xmlns:rdf="http://www.w3.org/1999/02/22-rdf-syntax-ns#" xmlns="http://www.w3.org/2000/svg" xml:space="preserve" height="40" width="40" version="1.1" xmlns:cc="http://creativecommons.org/ns#" xmlns:dc="http://purl.org/dc/elements/1.1/"><metadata id="metadata8"><rdf:RDF><cc:Work rdf:about=""><dc:format>image/svg+xml</dc:format><dc:type rdf:resource="http://purl.org/dc/dcmitype/StillImage"/><dc:title/></cc:Work></rdf:RDF></metadata><defs id="defs6"/><g id="g10" transform="matrix(1.25,0,0,-1.25,0,40)"><path id="path4687" stroke-linejoin="round" d="m1.6254,20.04c-0.17225,2.344,0.53825,4.7424,1.9594,6.6144s3.5404,3.2009,5.8445,3.6649,4.7725,0.05898,6.8075-1.117,3.6185-3.1124,4.3669-5.3404c0.27838-0.82865,0.44431-1.6913,0.71216-2.5234,0.26785-0.83211,0.65182-1.6519,1.2856-2.254,0.53857-0.5117,1.2261-0.83691,1.9203-1.1015,0.69416-0.26463,1.4101-0.47841,2.0751-0.80942,1.2011-0.59778,2.2046-1.5747,2.8637-2.7432,0.65913-1.1685,0.97556-2.5227,0.93612-3.8638-0.04-1.3422-0.431-2.6673-1.098-3.8316-0.666-1.1643-1.605-2.1677-2.702-2.9393-1.704-1.198-3.776-1.8268-5.856-1.9383-2.081-0.1115-4.17,0.2791-6.13,0.9828-3.578,1.284-6.7666,3.6302-9.0569,6.6636-2.2902,3.0338-3.6735,6.7428-3.9287,10.535" stroke-dashoffset="0" stroke="#000" stroke-linecap="round" stroke-miterlimit="4" stroke-dasharray="3.2, 6.4" stroke-width="3.20000005" fill="none"/></g></svg>
