<?xml version="1.0" encoding="UTF-8" standalone="no"?>
<!-- Created with Inkscape (http://www.inkscape.org/) -->

<svg
   xmlns:dc="http://purl.org/dc/elements/1.1/"
   xmlns:cc="http://creativecommons.org/ns#"
   xmlns:rdf="http://www.w3.org/1999/02/22-rdf-syntax-ns#"
   xmlns:svg="http://www.w3.org/2000/svg"
   xmlns="http://www.w3.org/2000/svg"
   xmlns:sodipodi="http://sodipodi.sourceforge.net/DTD/sodipodi-0.dtd"
   xmlns:inkscape="http://www.inkscape.org/namespaces/inkscape"
   version="1.1"
   width="40"
   height="40"
   id="svg2"
   xml:space="preserve"
   inkscape:version="0.48.4 r9939"
   sodipodi:docname="hstrip.svg"><sodipodi:namedview
     pagecolor="#ffffff"
     bordercolor="#666666"
     borderopacity="1"
     objecttolerance="10"
     gridtolerance="10"
     guidetolerance="10"
     inkscape:pageopacity="0"
     inkscape:pageshadow="2"
     inkscape:window-width="1855"
     inkscape:window-height="1056"
     id="namedview3047"
     showgrid="true"
     inkscape:zoom="15.503316"
     inkscape:cx="28.385876"
     inkscape:cy="17.185383"
     inkscape:window-x="65"
     inkscape:window-y="24"
     inkscape:window-maximized="1"
     inkscape:current-layer="text3882"><inkscape:grid
       type="xygrid"
       id="grid3873" /></sodipodi:namedview><defs
     id="defs6302" /><metadata
     id="metadata8"><rdf:RDF><cc:Work
         rdf:about=""><dc:format>image/svg+xml</dc:format><dc:type
           rdf:resource="http://purl.org/dc/dcmitype/StillImage" /><dc:title /></cc:Work></rdf:RDF></metadata><g
     style="font-size:40px;font-style:normal;font-weight:bold;line-height:125%;letter-spacing:0px;word-spacing:0px;fill:#000000;fill-opacity:1;stroke:none;font-family:Sans;-inkscape-font-specification:Sans Bold"
     id="text3882"
     transform="matrix(0.76532136,0,0,0.85733422,-4.7847647,16.103041)"><path
       d="m 6.2519681,-1.2865944 6.5332029,5e-7 0,11.6640629 7.839844,0 c 0,1.166406 5.662109,6.220833 6.533203,6.998437 2.177735,1.555209 2.613282,1.166406 3.919922,1.166406 l 0,9.331251 -6.533203,0 0,-11.664063 -11.759766,0 0,11.664063 -6.5332029,-1e-6 0,-29.1601564"
       id="path3887"
       inkscape:connector-curvature="0"
       sodipodi:nodetypes="ccccccccccccc" /></g><g
     id="g3878"
     transform="matrix(0.74729598,0,0,0.750103,10.105427,-0.00281451)"><path
       style="fill:#000000;fill-opacity:1;stroke:#000000;stroke-width:4;stroke-linecap:round;stroke-linejoin:round;stroke-miterlimit:4;stroke-opacity:1;stroke-dasharray:none"
       id="path6826"
       d="m 38,2 -14,14 0,7 -7,-7 7,0"
       inkscape:connector-curvature="0" /><path
       style="fill:#000000;fill-opacity:1;stroke:#000000;stroke-width:2.00026536000000021;stroke-linecap:round;stroke-linejoin:round;stroke-miterlimit:4;stroke-opacity:1;stroke-dasharray:none"
       d="m 1,17 c 0,0 -0.92579917,5.685502 2,13 2,5 7,9 7,9 5,-1 12,-8 12,-13 l -8,-8 c 0,0 -2,1 -7,1 -5.3851648,0 -6,-2 -6,-2 z"
       inkscape:connector-curvature="0"
       id="path6824" /></g></svg>