<?xml version="1.0" encoding="UTF-8" standalone="no"?>
<!-- Created with Inkscape (http://www.inkscape.org/) -->

<svg
   xmlns:dc="http://purl.org/dc/elements/1.1/"
   xmlns:cc="http://creativecommons.org/ns#"
   xmlns:rdf="http://www.w3.org/1999/02/22-rdf-syntax-ns#"
   xmlns:svg="http://www.w3.org/2000/svg"
   xmlns="http://www.w3.org/2000/svg"
   xmlns:sodipodi="http://sodipodi.sourceforge.net/DTD/sodipodi-0.dtd"
   xmlns:inkscape="http://www.inkscape.org/namespaces/inkscape"
   id="svg4802"
   height="30"
   width="30"
   version="1.1"
   inkscape:version="0.48.4 r9939"
   sodipodi:docname="rotate.svg">
  <defs
     id="defs9" />
  <sodipodi:namedview
     pagecolor="#ffffff"
     bordercolor="#666666"
     borderopacity="1"
     objecttolerance="10"
     gridtolerance="10"
     guidetolerance="10"
     inkscape:pageopacity="0"
     inkscape:pageshadow="2"
     inkscape:window-width="1855"
     inkscape:window-height="1056"
     id="namedview7"
     showgrid="false"
     inkscape:zoom="15.733333"
     inkscape:cx="19.320883"
     inkscape:cy="14.739962"
     inkscape:window-x="65"
     inkscape:window-y="24"
     inkscape:window-maximized="1"
     inkscape:current-layer="svg4802" />
  <metadata
     id="metadata4807">
    <rdf:RDF>
      <cc:Work
         rdf:about="">
        <dc:format>image/svg+xml</dc:format>
        <dc:type
           rdf:resource="http://purl.org/dc/dcmitype/StillImage" />
        <dc:title></dc:title>
      </cc:Work>
    </rdf:RDF>
  </metadata>
  <g
     id="layer1"
     transform="translate(0,-1022.3622)">
    <g
       id="g490"
       transform="matrix(1.3763076,0,0,-1.3763135,22.473221,1045.4683)">
      <path
         id="path492"
         d="M-0.34262,0.39268c-0.74478-0.64026-1.5904-1.1153-2.5135-1.4149-0.7215-0.2324-1.4709-0.351-2.2223-0.351-0.18387,0.00187-0.364,0.00747-0.53853,0.021467-0.95013,0.07-1.8564,0.31827-2.6945,0.73173-0.86893,0.4284-1.6352,1.0248-2.2792,1.7705-0.6412,0.742-1.1163,1.5885-1.4159,2.5116-0.2296,0.71493-0.3472,1.4653-0.3472,2.2269,0,0.18013,0.0065,0.36027,0.02053,0.54693,0.06907,0.93893,0.3164,1.8396,0.73173,2.6796,0.43027,0.87173,1.0267,1.638,1.7677,2.2783,0.74293,0.6412,1.5885,1.1172,2.5116,1.4159,0.868,0.27813,1.8051,0.3808,2.7804,0.32853,0.9212-0.06813,1.8452-0.32107,2.674-0.73173,0.64867-0.32013,1.2964-0.80267,1.8172-1.2973l-0.0112-0.0075-1.8493-1.5748,6.4064-1.5176-0.4807,6.5644-1.8667-1.589-0.013067-0.0084c-0.80173,0.81853-1.7369,1.5325-2.7608,2.0365-1.1779,0.5852-2.4444,0.93053-3.7725,1.0285-1.2871,0.0756-2.6171-0.06067-3.8603-0.46293-1.3001-0.41907-2.4873-1.0855-3.5243-1.9824-1.0416-0.896-1.8751-1.9703-2.4789-3.192-0.5796-1.1807-0.92493-2.4463-1.022-3.7651-0.01867-0.25107-0.028-0.50027-0.028-0.7504,0-1.0612,0.1652-2.1112,0.48907-3.1192,0.4172-1.2992,1.0836-2.4817,1.9796-3.5215,0.89507-1.0388,1.9712-1.8713,3.1939-2.4771,1.1816-0.58333,2.4481-0.92867,3.7632-1.0257,0.23707-0.017733,0.476-0.028,0.71307-0.028h0.048533c1.0603,0,2.1065,0.16613,3.108,0.49093,1.2973,0.41627,2.4817,1.0827,3.5243,1.9796,1.0407,0.89787,1.8732,1.9703,2.4761,3.1939l-2.559,1.2876c-0.43212-0.8689-1.0248-1.6352-1.7677-2.2773" />
    </g>
  </g>
</svg>
