<?xml version="1.0" encoding="UTF-8" standalone="no"?>
<!-- Created with Inkscape (http://www.inkscape.org/) -->

<svg
   xmlns:dc="http://purl.org/dc/elements/1.1/"
   xmlns:cc="http://creativecommons.org/ns#"
   xmlns:rdf="http://www.w3.org/1999/02/22-rdf-syntax-ns#"
   xmlns:svg="http://www.w3.org/2000/svg"
   xmlns="http://www.w3.org/2000/svg"
   xmlns:sodipodi="http://sodipodi.sourceforge.net/DTD/sodipodi-0.dtd"
   xmlns:inkscape="http://www.inkscape.org/namespaces/inkscape"
   id="svg2"
   version="1.1"
   inkscape:version="0.48.4 r9939"
   width="40"
   height="40"
   xml:space="preserve"
   sodipodi:docname="benzene.svg"
   inkscape:export-filename="/home/herman/Documents/Developing/Web/HermanBergwerf/molview/img/action/fragment#fff.png"
   inkscape:export-xdpi="216"
   inkscape:export-ydpi="216"><metadata
     id="metadata8"><rdf:RDF><cc:Work
         rdf:about=""><dc:format>image/svg+xml</dc:format><dc:type
           rdf:resource="http://purl.org/dc/dcmitype/StillImage" /><dc:title /></cc:Work></rdf:RDF></metadata><defs
     id="defs6"><clipPath
       clipPathUnits="userSpaceOnUse"
       id="clipPath16"><path
         d="M 0,32 32,32 32,0 0,0 0,32 z"
         id="path18" /></clipPath><clipPath
       clipPathUnits="userSpaceOnUse"
       id="clipPath46"><path
         d="M 0,32 32,32 32,0 0,0 0,32 z"
         id="path48" /></clipPath><clipPath
       clipPathUnits="userSpaceOnUse"
       id="clipPath56"><path
         d="M 0,32 32,32 32,0 0,0 0,32 z"
         id="path58" /></clipPath><clipPath
       clipPathUnits="userSpaceOnUse"
       id="clipPath88"><path
         d="M 0,32 32,32 32,0 0,0 0,32 z"
         id="path90" /></clipPath><clipPath
       clipPathUnits="userSpaceOnUse"
       id="clipPath274"><path
         d="M 0,32 32,32 32,0 0,0 0,32 z"
         id="path276" /></clipPath><clipPath
       clipPathUnits="userSpaceOnUse"
       id="clipPath422"><path
         d="M 0,32 32,32 32,0 0,0 0,32 z"
         id="path424" /></clipPath><clipPath
       clipPathUnits="userSpaceOnUse"
       id="clipPath532"><path
         d="M 0,32 32,32 32,0 0,0 0,32 z"
         id="path534" /></clipPath><clipPath
       clipPathUnits="userSpaceOnUse"
       id="clipPath582"><path
         d="M 0,32 32,32 32,0 0,0 0,32 z"
         id="path584" /></clipPath><clipPath
       clipPathUnits="userSpaceOnUse"
       id="clipPath660"><path
         d="M 0,32 32,32 32,0 0,0 0,32 z"
         id="path662" /></clipPath><clipPath
       clipPathUnits="userSpaceOnUse"
       id="clipPath758"><path
         d="M 0,32 32,32 32,0 0,0 0,32 z"
         id="path760" /></clipPath><clipPath
       clipPathUnits="userSpaceOnUse"
       id="clipPath838"><path
         d="M 0,32 32,32 32,0 0,0 0,32 z"
         id="path840" /></clipPath><clipPath
       clipPathUnits="userSpaceOnUse"
       id="clipPath896"><path
         d="M 0,32 32,32 32,0 0,0 0,32 z"
         id="path898" /></clipPath></defs><sodipodi:namedview
     pagecolor="#ffffff"
     bordercolor="#666666"
     borderopacity="1"
     objecttolerance="10"
     gridtolerance="10"
     guidetolerance="10"
     inkscape:pageopacity="0"
     inkscape:pageshadow="2"
     inkscape:window-width="1855"
     inkscape:window-height="1056"
     id="namedview4"
     showgrid="true"
     inkscape:zoom="16.68772"
     inkscape:cx="10.5547"
     inkscape:cy="15.652845"
     inkscape:window-x="1431"
     inkscape:window-y="24"
     inkscape:window-maximized="1"
     inkscape:current-layer="g5246"><inkscape:grid
       type="xygrid"
       id="grid3984" /></sodipodi:namedview><g
     id="g10"
     inkscape:groupmode="layer"
     inkscape:label="Action_Bar_Icons"
     transform="matrix(1.25,0,0,-1.25,0,40)"><g
       id="g5246"
       transform="matrix(0.92920985,0,0,0.92920985,1.1326425,1.0265285)"
       style="opacity:1;stroke:#000000;stroke-opacity:1"><path
         transform="matrix(0.8,0,0,-0.8,0,32)"
         d="m 20,5 12.990381,7.5 0,15 L 20,35 7.0096187,27.5 l 4e-7,-15 z"
         inkscape:randomized="0"
         inkscape:rounded="0"
         inkscape:flatsided="true"
         sodipodi:arg2="-1.0471976"
         sodipodi:arg1="-1.5707963"
         sodipodi:r2="12.990381"
         sodipodi:r1="15"
         sodipodi:cy="20"
         sodipodi:cx="20"
         sodipodi:sides="6"
         id="path4614"
         style="color:#000000;fill:none;stroke:#ffffff;stroke-width:2;stroke-linecap:butt;stroke-linejoin:round;stroke-miterlimit:4;stroke-opacity:1;stroke-dasharray:none;stroke-dashoffset:15;marker:none;visibility:visible;display:inline;overflow:visible;enable-background:accumulate"
         sodipodi:type="star" /><path
         sodipodi:nodetypes="cccc"
         transform="matrix(0.8,0,0,-0.8,0,32)"
         inkscape:connector-curvature="0"
         id="path4616"
         d="m 10,14 0,11 0,0 0,1"
         style="fill:none;stroke:#ffffff;stroke-width:2;stroke-linecap:round;stroke-linejoin:miter;stroke-miterlimit:4;stroke-opacity:1;stroke-dasharray:none" /><path
         sodipodi:nodetypes="cc"
         transform="matrix(0.8,0,0,-0.8,0,32)"
         inkscape:connector-curvature="0"
         id="path4618"
         d="M 20,31 30,25"
         style="fill:none;stroke:#ffffff;stroke-width:2;stroke-linecap:round;stroke-linejoin:miter;stroke-miterlimit:4;stroke-opacity:1;stroke-dasharray:none" /><path
         sodipodi:nodetypes="cc"
         transform="matrix(0.8,0,0,-0.8,0,32)"
         inkscape:connector-curvature="0"
         id="path4620"
         d="m 20,9 10,6"
         style="fill:none;stroke:#ffffff;stroke-width:2;stroke-linecap:round;stroke-linejoin:miter;stroke-miterlimit:4;stroke-opacity:1;stroke-dasharray:none" /></g></g></svg>