<?xml version="1.0" encoding="UTF-8" standalone="no"?>
<!-- Created with Inkscape (http://www.inkscape.org/) -->

<svg
   xmlns:dc="http://purl.org/dc/elements/1.1/"
   xmlns:cc="http://creativecommons.org/ns#"
   xmlns:rdf="http://www.w3.org/1999/02/22-rdf-syntax-ns#"
   xmlns:svg="http://www.w3.org/2000/svg"
   xmlns="http://www.w3.org/2000/svg"
   xmlns:sodipodi="http://sodipodi.sourceforge.net/DTD/sodipodi-0.dtd"
   xmlns:inkscape="http://www.inkscape.org/namespaces/inkscape"
   width="82"
   height="20"
   id="svg4103"
   version="1.1"
   inkscape:version="0.48.5 r10040"
   sodipodi:docname="mark.svg"
   viewBox="0 0 82 20">
  <defs
     id="defs4105">
    <inkscape:path-effect
       effect="spiro"
       id="path-effect4641"
       is_visible="true" />
    <inkscape:path-effect
       effect="spiro"
       id="path-effect4633"
       is_visible="true" />
  </defs>
  <sodipodi:namedview
     id="base"
     pagecolor="#ffffff"
     bordercolor="#666666"
     borderopacity="1.0"
     inkscape:pageopacity="0.0"
     inkscape:pageshadow="2"
     inkscape:zoom="11.2"
     inkscape:cx="45.340056"
     inkscape:cy="10.868658"
     inkscape:document-units="px"
     inkscape:current-layer="layer1"
     showgrid="true"
     inkscape:window-width="1920"
     inkscape:window-height="1025"
     inkscape:window-x="-2"
     inkscape:window-y="32"
     inkscape:window-maximized="1">
    <inkscape:grid
       type="xygrid"
       id="grid4111"
       empspacing="5"
       visible="true"
       enabled="true"
       snapvisiblegridlinesonly="true" />
  </sodipodi:namedview>
  <metadata
     id="metadata4108">
    <rdf:RDF>
      <cc:Work
         rdf:about="">
        <dc:format>image/svg+xml</dc:format>
        <dc:type
           rdf:resource="http://purl.org/dc/dcmitype/StillImage" />
      </cc:Work>
    </rdf:RDF>
  </metadata>
  <g
     inkscape:label="Layer 1"
     inkscape:groupmode="layer"
     id="layer1"
     transform="translate(0,-1032.3622)">
    <g
       id="g4665"
       transform="matrix(1,0,-0.2,1,210.87244,0)"
       style="fill:#aaaaaf;fill-opacity:0.94117647000000004;">
      <path
         sodipodi:nodetypes="cccccccccccccc"
         inkscape:connector-curvature="0"
         id="path4627"
         d="m 0,1052.3622 c 2.6666667,-6.6667 5.3333333,-13.3333 8,-20 0.6666667,0 1.3333333,0 2,0 0,5 0,10 0,15 2,-5 4,-10 6,-15 0.666667,0 1.333333,0 2,0 0,6.6667 0,13.3333 0,20 -0.666667,0 -1.333333,0 -2,0 0,-5.3333 0,-10.6667 0,-16 -2,5.3333 -4,10.6667 -6,16 -0.6666667,0 -1.3333333,0 -2,0 0,-5 0,-10 0,-15 -2,5 -4,10 -6,15 -0.6666667,0 -1.33333333,0 -2,0 z"
         style="fill:#aaaaaf;fill-opacity:0.94117647000000004;stroke:none;stroke-width:2;stroke-miterlimit:4;stroke-dasharray:none" />
      <path
         style="font-size:medium;font-style:normal;font-variant:normal;font-weight:normal;font-stretch:normal;text-indent:0;text-align:start;text-decoration:none;line-height:normal;letter-spacing:normal;word-spacing:normal;text-transform:none;direction:ltr;block-progression:tb;writing-mode:lr-tb;text-anchor:start;baseline-shift:baseline;color:#000000;fill:#aaaaaf;fill-opacity:0.94117647;stroke:none;stroke-width:2;marker:none;visibility:visible;display:inline;overflow:visible;enable-background:accumulate;font-family:Sans;-inkscape-font-specification:Sans"
         d="m 21.59375,1032.375 -0.3125,0.2812 -2,2 -0.28125,0.2813 0,0.4375 0,16 0,1 1,0 2,0 4,0 0.40625,0 0.3125,-0.3125 2,-2 0.28125,-0.2813 0,-0.4062 0,-16 0,-1 -1,0 -2,0 -4,0 -0.40625,0 z m 0.8125,2 3.59375,0 1,0 0,14.5625 -1.4375,1.4375 -3.5625,0 -1,0 0,-14.5938 1.40625,-1.4062 z"
         id="path4663"
         inkscape:connector-curvature="0" />
      <path
         inkscape:connector-curvature="0"
         id="path4643"
         d="m 30,1032.3622 0,20 12,0 -1,-2 -9,0 0,-18 z"
         style="fill:#aaaaaf;fill-opacity:0.94117647;stroke:none" />
      <path
         inkscape:connector-curvature="0"
         id="path4649"
         d="m 33,1032.3622 10,20 2,0 0,-20 -2,0 0,16 -8,-16 z"
         style="fill:#aaaaaf;fill-opacity:0.94117647;stroke:none" />
      <path
         inkscape:connector-curvature="0"
         id="path4651"
         d="m 46,1032.3622 0,20 2,0 0,-20 z"
         style="fill:#aaaaaf;fill-opacity:0.94117647;stroke:none" />
      <path
         sodipodi:nodetypes="ccccccccccccc"
         inkscape:connector-curvature="0"
         id="path4653"
         d="m 49,1032.3622 0,20 9,0 0,-2 -7,0 0,-7 6,0 0,-2 -6,0 0,-7 7,0 0,-2 z"
         style="fill:#aaaaaf;fill-opacity:0.94117647;stroke:none" />
      <path
         sodipodi:nodetypes="cccccccccccccc"
         inkscape:connector-curvature="0"
         id="path4659"
         d="m 59,1032.3622 0,20 2,0 6,-15 0,15 2,0 8,-20 -2,0 -6,15 0,-15 -2,0 -6,15 0,-15 z"
         style="fill:#aaaaaf;fill-opacity:0.94117647;stroke:none" />
    </g>
  </g>
</svg>
