<?xml version="1.0" encoding="UTF-8" standalone="no"?>
<!-- Created with Inkscape (http://www.inkscape.org/) -->

<svg
   xmlns:osb="http://www.openswatchbook.org/uri/2009/osb"
   xmlns:dc="http://purl.org/dc/elements/1.1/"
   xmlns:cc="http://creativecommons.org/ns#"
   xmlns:rdf="http://www.w3.org/1999/02/22-rdf-syntax-ns#"
   xmlns:svg="http://www.w3.org/2000/svg"
   xmlns="http://www.w3.org/2000/svg"
   xmlns:sodipodi="http://sodipodi.sourceforge.net/DTD/sodipodi-0.dtd"
   xmlns:inkscape="http://www.inkscape.org/namespaces/inkscape"
   width="128"
   height="128"
   id="svg2"
   sodipodi:version="0.32"
   inkscape:version="0.48.4 r9939"
   version="1.0"
   sodipodi:docname="gears.svg"
   inkscape:output_extension="org.inkscape.output.svg.inkscape"
   inkscape:export-filename="/var/www/HermanBergwerf/molview/img/process.png"
   inkscape:export-xdpi="22.5"
   inkscape:export-ydpi="22.5">
  <defs
     id="defs4">
    <linearGradient
       id="linearGradient4443"
       osb:paint="solid">
      <stop
         style="stop-color:#000000;stop-opacity:1;"
         offset="0"
         id="stop4445" />
    </linearGradient>
  </defs>
  <sodipodi:namedview
     id="base"
     pagecolor="#ffffff"
     bordercolor="#666666"
     borderopacity="1.0"
     gridtolerance="10000"
     guidetolerance="10"
     objecttolerance="10"
     inkscape:pageopacity="0.0"
     inkscape:pageshadow="2"
     inkscape:zoom="3.434375"
     inkscape:cx="20.427342"
     inkscape:cy="50.575381"
     inkscape:document-units="px"
     inkscape:current-layer="layer1"
     width="512px"
     height="512px"
     inkscape:window-width="1366"
     inkscape:window-height="744"
     inkscape:window-x="0"
     inkscape:window-y="336"
     showgrid="false"
     inkscape:window-maximized="1" />
  <metadata
     id="metadata7">
    <rdf:RDF>
      <cc:Work
         rdf:about="">
        <dc:format>image/svg+xml</dc:format>
        <dc:type
           rdf:resource="http://purl.org/dc/dcmitype/StillImage" />
        <dc:title></dc:title>
      </cc:Work>
    </rdf:RDF>
  </metadata>
  <g
     inkscape:label="Layer 1"
     inkscape:groupmode="layer"
     id="layer1"
     transform="translate(0,-471.2193)">
    <g
       id="g2246"
       style="fill:#000000;fill-opacity:1;stroke-width:0;stroke-miterlimit:4;stroke-dasharray:none;stroke:#000000;stroke-opacity:1;stroke-linejoin:round"
       transform="matrix(0.24001995,0,0,0.24001995,2.467341,452.89025)">
      <path
         style="fill:#000000;fill-opacity:1;stroke-width:0;stroke-miterlimit:4;stroke-dasharray:none;stroke:#000000;stroke-opacity:1;stroke-linejoin:round"
         d="m 419.7259,577.84737 c -0.632,-0.32925 -1.32127,-0.8614 -1.5317,-1.18255 -0.21045,-0.32117 -0.7621,-0.9794 -1.2259,-1.46272 -1.39407,-1.45273 -4.33645,-4.76145 -5.62958,-6.33048 -2.96217,-3.5942 -7.13442,-8.3504 -11.07907,-12.62972 -1.02593,-1.113 -1.9741,-2.22028 -2.10702,-2.4606 -0.13293,-0.24035 -1.11056,-1.40805 -2.1725,-2.59488 -1.06196,-1.18682 -2.05701,-2.39362 -2.2112,-2.68177 -0.15423,-0.28815 -0.53093,-0.66328 -0.83715,-0.83363 -0.54248,-0.30175 -1.20811,-0.3872 -7.18178,-0.92187 -1.58125,-0.14153 -3.23852,-0.36643 -3.68285,-0.4998 -0.4443,-0.13335 -2.4693,-0.31658 -4.5,-0.40715 l -3.69215,-0.1647 -1.40103,1.0834 c -1.81275,1.40175 -3.26177,2.60192 -4.55825,3.77537 -2.04192,1.84815 -4.17639,3.63375 -6.79337,5.68303 -0.79017,0.61875 -2.06908,1.6686 -2.842,2.33302 -0.77295,0.6644 -1.85535,1.59338 -2.40535,2.06435 -0.55,0.471 -1.39375,1.19723 -1.875,1.61385 -0.9193,0.79585 -2.4195,2.03015 -5,4.11378 -2.53888,2.05002 -4.0802,3.3498 -4.875,4.111 -0.4125,0.39505 -1.2441,0.964 -1.848,1.26432 l -1.09797,0.54605 -1.40203,-0.6773 c -0.7711,-0.3725 -1.6284,-0.8837 -1.90512,-1.13597 -0.27671,-0.25228 -1.0642,-0.70235 -1.75,-1.00015 -0.68578,-0.29783 -1.52973,-0.8052 -1.87543,-1.1275 -0.3457,-0.32233 -1.11775,-0.75863 -1.7157,-0.9696 -0.59793,-0.21095 -1.47212,-0.72158 -1.94265,-1.1347 -0.47053,-0.41313 -0.99748,-0.75115 -1.17103,-0.75115 -0.17352,0 -1.0863,-0.50625 -2.02837,-1.125 -0.94205,-0.61875 -1.861,-1.125 -2.04207,-1.125 -0.18108,0 -0.7142,-0.33803 -1.18473,-0.75115 -0.47052,-0.41313 -1.32113,-0.9154 -1.8902,-1.1162 -0.56907,-0.20078 -1.65053,-0.89673 -2.4032,-1.54653 -1.61672,-1.3958 -1.66137,-1.67395 -0.75043,-4.67497 0.33995,-1.11988 0.79218,-3.5549 1.00495,-5.41115 0.2128,-1.85625 0.66368,-4.33125 1.00198,-5.5 0.3383,-1.16875 0.78835,-3.64375 1.0001,-5.5 0.21178,-1.85625 0.66082,-4.34135 0.9979,-5.52245 0.33707,-1.1811 0.78702,-3.6561 0.99988,-5.5 0.21287,-1.8439 0.66077,-4.3088 0.99534,-5.47755 1.1055,-3.86195 1.11903,-3.68395 -0.48412,-6.37055 -0.78092,-1.3087 -1.50645,-2.37945 -1.61225,-2.37945 -0.10583,0 -0.49065,-0.548 -0.8552,-1.2178 -0.36452,-0.66978 -0.84118,-1.36583 -1.05922,-1.54678 -0.21803,-0.18097 -0.65778,-0.84232 -0.97718,-1.46972 -0.31943,-0.62738 -0.87315,-1.41343 -1.2305,-1.74678 -0.35738,-0.33335 -0.64975,-0.7431 -0.64975,-0.91057 0,-0.60333 -2.85555,-4.10148 -3.65945,-4.48293 -0.44662,-0.21195 -2.1239,-0.5574 -3.72728,-0.76767 -1.60337,-0.21028 -3.7937,-0.65983 -4.86737,-0.999 -1.07368,-0.33918 -3.26742,-0.78918 -4.875,-1 -1.60758,-0.21083 -3.81327,-0.6646 -4.90158,-1.0084 -1.0883,-0.34378 -3.28044,-0.78655 -4.87145,-0.98393 -1.59099,-0.19735 -3.80815,-0.64802 -4.927,-1.00147 -1.11884,-0.35343 -3.3468,-0.8051 -4.95102,-1.00373 -3.18815,-0.3947 -5.8607,-1.11525 -6.72138,-1.8122 -0.44384,-0.3594 -0.58997,-0.83285 -0.75157,-2.43507 -0.25025,-2.48135 -0.42552,-3.49625 -1.01492,-5.87715 -0.25711,-1.0385 -0.6456,-3.851 -0.86333,-6.25 -0.22705,-2.50143 -0.65665,-5.3941 -1.00727,-6.7821 -0.33625,-1.33118 -0.61138,-2.86185 -0.61138,-3.40153 0,-0.902 0.11482,-1.06705 1.42257,-2.04505 0.78243,-0.58512 1.86143,-1.2187 2.39781,-1.40795 0.53635,-0.18925 1.29895,-0.6165 1.69464,-0.94945 0.3957,-0.33297 1.27223,-0.78897 1.94783,-1.01337 0.67557,-0.2244 1.42562,-0.626 1.66675,-0.89243 0.24112,-0.26645 1.06997,-0.71995 1.8419,-1.00777 0.77193,-0.28783 1.62963,-0.73445 1.90602,-0.99248 0.27638,-0.25802 1.16785,-0.76337 1.98103,-1.123 0.8132,-0.35965 1.74722,-0.86522 2.0756,-1.12355 0.3284,-0.2583 1.01192,-0.60417 1.51897,-0.7686 0.50703,-0.1644 1.24918,-0.53642 1.64923,-0.82672 0.73528,-0.53358 2.81807,-1.64805 6.0275,-3.22525 0.96515,-0.4743 1.90195,-1.03963 2.08172,-1.25628 0.17981,-0.21662 0.88425,-0.579 1.56543,-0.80525 0.68117,-0.22625 1.5545,-0.67725 1.9407,-1.00222 0.38623,-0.32498 1.31085,-0.8208 2.05475,-1.10188 0.7439,-0.28105 1.87002,-0.98975 2.5025,-1.57487 1.0136,-0.93773 1.18218,-1.24693 1.42193,-2.60805 0.14959,-0.8493 0.56379,-2.161 0.92047,-2.9149 0.35665,-0.7539 0.81175,-2.22425 1.01135,-3.26743 0.19957,-1.04317 0.6303,-2.43107 0.95712,-3.08417 0.66816,-1.3352 1.41418,-4.3967 1.41418,-5.80343 0,-1.3341 -0.60037,-3.14072 -1.38605,-4.17077 -0.373,-0.48905 -0.82732,-1.38473 -1.0096,-1.9904 -0.1823,-0.60565 -0.60925,-1.4661 -0.9488,-1.91205 -0.33955,-0.44598 -0.8552,-1.44748 -1.1459,-2.22558 -0.2907,-0.7781 -0.68877,-1.54772 -0.88465,-1.71027 -0.19587,-0.16255 -0.58778,-0.91473 -0.87092,-1.6715 -0.28316,-0.75675 -0.78431,-1.73088 -1.1137,-2.1647 -0.32938,-0.43385 -0.8272,-1.39205 -1.10628,-2.12935 -0.27905,-0.7373 -0.68357,-1.53525 -0.89892,-1.7732 -0.21533,-0.23795 -0.66021,-1.11823 -0.98858,-1.95615 -0.3284,-0.83795 -0.87843,-1.89625 -1.22228,-2.35183 -0.34387,-0.45555 -0.74212,-1.25895 -0.88502,-1.78535 -0.1429,-0.52637 -0.54527,-1.33132 -0.89417,-1.78877 -0.34893,-0.45745 -0.86606,-1.4509 -1.14921,-2.20765 -0.28315,-0.75678 -0.67504,-1.50895 -0.87092,-1.6715 -0.19587,-0.16255 -0.59223,-0.92663 -0.88082,-1.69793 -0.28858,-0.77132 -0.85533,-1.85197 -1.25943,-2.40147 -1.1624,-1.58063 -1.02082,-2.22485 0.93962,-4.2756 0.92013,-0.9625 2.74133,-2.93125 4.0471,-4.375 1.30578,-1.44375 3.28076,-3.5846 4.38883,-4.75745 1.1081,-1.17285 3.13668,-3.3381 4.50795,-4.81165 1.98665,-2.13478 2.67047,-2.7124 3.3653,-2.84275 1.12883,-0.21178 2.68812,0.21465 4.13103,1.1297 0.6324,0.40107 1.56847,0.80662 2.08012,0.90125 0.51168,0.0947 1.51295,0.504 2.2251,0.9097 0.71213,0.4057 1.88158,0.9119 2.59877,1.12487 0.71718,0.21298 1.727,0.66718 2.24403,1.00933 0.51703,0.34215 1.58217,0.78977 2.36703,0.99472 0.78484,0.20498 1.85227,0.6541 2.37207,0.99808 0.51978,0.34397 1.53152,0.78012 2.2483,0.9692 0.71677,0.18907 1.71545,0.61657 2.21925,0.94997 0.5038,0.3334 1.57335,0.79728 2.37677,1.03085 0.80341,0.23355 1.8873,0.70693 2.40868,1.05195 0.52135,0.34503 1.59007,0.795 2.37493,0.99995 0.78484,0.20498 1.83989,0.6459 2.34455,0.97988 0.50467,0.33395 1.49722,0.77935 2.20567,0.98972 0.70847,0.2104 1.94173,0.72635 2.74057,1.14658 1.65813,0.87222 2.37503,0.84335 3.88596,-0.15653 0.51675,-0.34197 1.53109,-0.74412 2.25409,-0.89365 0.72298,-0.14952 1.89191,-0.59202 2.5976,-0.98332 0.70571,-0.3913 1.99945,-0.89423 2.875,-1.11763 0.87555,-0.22337 2.00908,-0.67835 2.51891,-1.01105 0.50984,-0.3327 1.46609,-0.72305 2.125,-0.86747 0.65892,-0.14443 1.39034,-0.32085 1.62537,-0.39205 0.60217,-0.18243 2.64042,-3.33258 3.06145,-4.73155 0.19352,-0.64305 0.634,-1.59548 0.9788,-2.11653 0.34483,-0.52105 0.80522,-1.56067 1.02315,-2.31027 0.2179,-0.7496 0.67207,-1.73683 1.00925,-2.19385 0.33718,-0.45703 0.79135,-1.44425 1.00925,-2.19385 0.21793,-0.7496 0.66803,-1.77363 1.0002,-2.2756 0.3322,-0.50198 0.76762,-1.45638 0.9676,-2.12088 0.2,-0.66452 0.64575,-1.6345 0.99055,-2.15555 0.34483,-0.52105 0.80522,-1.56067 1.02315,-2.31027 0.2179,-0.7496 0.67207,-1.73683 1.00925,-2.19385 0.33718,-0.45703 0.78102,-1.40335 0.9863,-2.10298 0.2053,-0.69962 0.64947,-1.67537 0.98705,-2.16837 0.33757,-0.493 0.79372,-1.51543 1.01368,-2.27203 0.21994,-0.75662 0.67579,-1.7496 1.01297,-2.20662 0.33718,-0.45703 0.79415,-1.4596 1.01552,-2.22798 0.42953,-1.49095 1.00188,-2.26022 2.26028,-3.03797 0.71378,-0.44113 0.87308,-0.45345 1.77055,-0.1368 0.6517,0.22992 3.8213,0.4871 9.34493,0.7582 4.59729,0.22565 9.1202,0.51922 10.05087,0.6524 0.93067,0.13317 2.13433,0.24215 2.67478,0.24215 0.81617,0 1.08649,0.13765 1.59577,0.8125 0.9536,1.26365 1.91448,3.80642 2.32312,6.14765 0.2049,1.17377 0.63938,2.76817 0.96556,3.5431 0.32614,0.77492 0.77042,2.43147 0.98725,3.68125 0.21684,1.24977 0.68242,2.90175 1.03462,3.67105 0.3522,0.7693 0.7987,2.38215 0.9922,3.5841 0.19353,1.20195 0.62743,2.8041 0.96425,3.56035 0.33683,0.75625 0.79332,2.42322 1.01448,3.70437 0.22112,1.28118 0.67684,2.9507 1.01267,3.71008 0.33582,0.7594 0.78937,2.41117 1.00785,3.67062 0.66175,3.81455 1.66387,5.10033 5.5843,7.16493 0.65273,0.34375 1.57247,0.92045 2.0439,1.28155 0.4714,0.36112 1.26537,0.78722 1.76437,0.94692 0.499,0.1597 1.09766,0.5007 1.33033,0.75783 0.23267,0.2571 1.00565,0.71452 1.71772,1.0165 0.71208,0.30197 1.57753,0.81425 1.92323,1.1384 0.77445,0.72617 2.50597,1.35907 3.71538,1.358 1.53557,-0.001 5.25855,-0.74503 6.98724,-1.3957 0.90408,-0.3403 2.71818,-0.79143 4.03131,-1.00253 1.31315,-0.21107 2.88504,-0.60365 3.49312,-0.8724 0.6081,-0.26872 2.0706,-0.66372 3.25,-0.8778 1.17942,-0.21405 3.21315,-0.71902 4.5194,-1.12212 1.30625,-0.40313 3.34193,-0.9015 4.5237,-1.10748 1.18177,-0.20597 2.94615,-0.65312 3.9208,-0.99365 0.97467,-0.34052 2.764,-0.789 3.97632,-0.99662 1.21231,-0.2076 2.63821,-0.56955 3.16865,-0.80433 0.9527,-0.42162 0.98058,-0.41842 2.28091,0.2624 0.99145,0.51908 1.42532,0.93078 1.75764,1.66773 0.24268,0.53815 0.6628,1.1787 0.93363,1.4234 0.27082,0.2447 0.75035,0.95115 1.06562,1.5699 0.31528,0.61875 0.86563,1.39772 1.22298,1.73107 0.35738,0.33335 0.64975,0.74458 0.64975,0.91385 0,0.16928 0.39257,0.77765 0.87238,1.35193 0.4798,0.5743 1.08327,1.51307 1.34104,2.08615 0.25775,0.5731 0.76521,1.31472 1.12763,1.64807 0.36242,0.33335 0.65895,0.74458 0.65895,0.91385 0,0.16928 0.40265,0.7897 0.89475,1.37873 0.49213,0.58902 1.16903,1.61217 1.50423,2.27365 0.3352,0.66147 0.71187,1.2027 0.83707,1.2027 0.30725,0 1.51395,2.58602 1.51395,3.24447 0,0.65405 -0.82215,2.2967 -1.3821,2.76143 -0.23025,0.19107 -0.8012,0.9148 -1.26877,1.60827 -0.46758,0.69345 -1.35543,1.93583 -1.97298,2.76083 -0.61755,0.825 -1.32045,1.82795 -1.562,2.2288 -0.24152,0.40085 -0.8329,1.17607 -1.31415,1.72272 -0.48125,0.54668 -1.1,1.35693 -1.375,1.80055 -0.7467,1.20463 -1.88485,2.76545 -2.9375,4.02848 -0.51562,0.61867 -0.9375,1.23155 -0.9375,1.36192 0,0.1304 -0.34888,0.60168 -0.77525,1.0473 -0.4264,0.44563 -0.9492,1.14773 -1.16175,1.56023 -0.21257,0.4125 -0.7637,1.19212 -1.22475,1.7325 -0.46102,0.54037 -0.83825,1.10995 -0.83825,1.26572 0,0.15578 -0.34755,0.61365 -0.77232,1.0175 -0.42478,0.40385 -0.94636,1.07178 -1.15908,1.48428 -0.2127,0.4125 -0.76515,1.1722 -1.22768,1.68822 -0.4625,0.51603 -0.84092,1.04355 -0.84092,1.1723 0,0.12873 -0.45,0.754 -1,1.38948 -0.55,0.63547 -1,1.2708 -1,1.41182 0,0.14105 -0.3447,0.73643 -0.76602,1.3231 l -0.76601,1.06665 0.62988,2.59923 c 0.34643,1.42955 0.80957,4.53897 1.0292,6.9098 0.6216,6.71012 1.09885,8.12427 3.35438,9.9394 0.85432,0.6875 2.02359,1.64912 2.59842,2.13695 0.57482,0.48782 1.3264,1.08282 1.67015,1.32225 0.34375,0.23942 1.2591,0.90905 2.03413,1.48807 0.77502,0.579 1.88827,1.39023 2.47389,1.80273 0.58563,0.4125 1.35778,1.03607 1.71588,1.38575 0.3581,0.34965 1.07298,0.8932 1.5886,1.2079 0.51562,0.31467 0.9375,0.6707 0.9375,0.7912 0,0.1205 0.53438,0.52592 1.1875,0.90095 0.65312,0.37505 1.60695,1.02667 2.11957,1.44805 0.51266,0.42137 1.4689,1.19202 2.125,1.71252 0.65613,0.5205 1.73415,1.39238 2.39563,1.9375 0.6615,0.54513 1.28105,0.99113 1.37678,0.99113 0.0958,0 0.79122,0.50625 1.54552,1.125 0.7543,0.61875 1.4948,1.125 1.64555,1.125 0.15077,0 0.63242,0.39375 1.07035,0.875 0.43792,0.48125 0.89945,0.875 1.02563,0.875 0.3608,0 3.11487,2.48952 3.29907,2.9822 0.25097,0.67127 -0.42677,3.80927 -1.11858,5.17905 -0.33714,0.66757 -0.79729,2.10857 -1.02252,3.20222 -0.22525,1.09368 -0.69185,2.60518 -1.03693,3.35888 -0.34505,0.75372 -0.8018,2.21477 -1.01495,3.24675 -0.21317,1.032 -0.64912,2.39252 -0.96882,3.0234 -0.31967,0.63087 -0.7786,2.1408 -1.01982,3.35537 -0.68378,3.4431 -1.68878,4.22578 -5.30071,4.12818 -3.03642,-0.0821 -11.66407,0.31482 -12.55827,0.57767 -0.9427,0.27713 -5.1248,0.50043 -17.5,0.9344 l -7.875,0.27615 -2.30315,2.43035 c -1.26672,1.3367 -3.21175,3.38663 -4.32225,4.55538 -3.98093,4.18972 -5.30582,5.6337 -5.68197,6.19275 -0.32648,0.4852 -0.37691,1.84835 -0.34678,9.375 0.0358,8.9328 0.39717,25.23332 0.66117,29.81895 0.12783,2.22032 0.0923,2.55635 -0.3062,2.89667 -0.91617,0.78235 -3.85722,2.21108 -5.34537,2.5967 -0.84375,0.21863 -1.96233,0.66785 -2.48575,0.99828 -0.5234,0.3304 -1.69252,0.77257 -2.59805,0.98257 -0.90552,0.21 -2.06835,0.6572 -2.58402,0.99375 -0.51571,0.33658 -1.65401,0.79473 -2.52956,1.0181 -0.87555,0.2234 -2.16929,0.72493 -2.875,1.11453 -0.70569,0.3896 -1.72784,0.78622 -2.27144,0.8814 -0.54361,0.0952 -1.411,0.38865 -1.92753,0.65217 -1.1138,0.5682 -0.8341,0.5861 -2.2332,-0.1428 z M 394.125,496.90905 c 0.9625,-0.13403 2.3125,-0.46033 3,-0.72508 0.6875,-0.26477 2.08532,-0.64472 3.10628,-0.84435 1.05909,-0.2071 2.24004,-0.6264 2.75,-0.97637 0.49154,-0.33738 1.53035,-0.84953 2.30844,-1.1381 0.7781,-0.2886 1.55808,-0.69745 1.73328,-0.90858 0.1752,-0.2111 0.77607,-0.61547 1.33527,-0.8986 1.31066,-0.66357 4.89823,-3.82867 6.56648,-5.79312 0.71488,-0.8418 1.66817,-1.9485 2.11847,-2.45935 0.4503,-0.51083 0.96016,-1.3373 1.133,-1.83658 0.17285,-0.4993 0.63658,-1.27487 1.03048,-1.72352 0.39393,-0.44863 0.85287,-1.36593 1.0199,-2.0384 0.16702,-0.67248 0.5812,-1.62693 0.92037,-2.121 0.43385,-0.63198 0.75925,-1.70678 1.09746,-3.625 0.26442,-1.49968 0.65117,-3.6267 0.85945,-4.7267 0.62072,-3.2783 0.55522,-4.18615 -0.84613,-11.72723 -0.3073,-1.6537 -0.74228,-3.12982 -1.105,-3.75 -0.329,-0.56252 -0.76612,-1.58527 -0.97137,-2.27277 -0.20525,-0.6875 -0.75193,-1.82523 -1.21478,-2.52828 -0.46288,-0.70305 -1.03982,-1.60305 -1.28212,-2 -1.14658,-1.87852 -1.73576,-2.58627 -4.11371,-4.9417 -3.17879,-3.14867 -4.11427,-3.92307 -5.71147,-4.7281 -0.69615,-0.35085 -1.40792,-0.80927 -1.58175,-1.01872 -0.17383,-0.20943 -0.898,-0.56803 -1.6093,-0.79683 -0.71128,-0.22882 -1.68895,-0.68215 -2.1726,-1.0074 -0.51767,-0.34815 -1.85435,-0.79347 -3.25,-1.08277 -1.30385,-0.2703 -2.87247,-0.67025 -3.4858,-0.8888 -2.98658,-1.06423 -10.29315,-0.8871 -13.30428,0.32255 -0.36817,0.1479 -1.60327,0.44607 -2.74465,0.6626 -1.28422,0.2436 -2.41315,0.62785 -2.96184,1.0081 -0.48765,0.33792 -1.39275,0.76675 -2.01135,0.95292 -0.61863,0.18618 -1.66503,0.7509 -2.32538,1.25495 -0.66035,0.50408 -1.31903,0.91648 -1.4637,0.91648 -0.14467,0 -0.68902,0.36562 -1.20965,0.8125 -0.52065,0.44687 -1.86148,1.6 -2.97965,2.5625 -1.11815,0.9625 -2.37692,2.28437 -2.79725,2.9375 -0.42033,0.65312 -0.85582,1.1875 -0.96777,1.1875 -0.11195,0 -0.45563,0.42187 -0.76373,0.9375 -0.3081,0.51562 -0.81915,1.22035 -1.13568,1.56605 -0.31652,0.3457 -0.75322,1.1332 -0.97047,1.75 -0.21723,0.6168 -0.66477,1.5152 -0.99455,1.99645 -0.32977,0.48125 -0.7366,1.4375 -0.90402,2.125 -0.16746,0.6875 -0.63375,2.07997 -1.03628,3.09437 -0.9967,2.5119 -1.36205,6.98653 -0.99922,12.2381 0.21605,3.1272 0.36482,3.98103 0.90689,5.20423 0.35668,0.80482 0.80615,2.23072 0.99883,3.16867 0.20905,1.01765 0.5671,1.93613 0.88785,2.27755 0.29565,0.31468 0.7663,1.1785 1.04593,1.91963 0.2796,0.7411 0.76262,1.6287 1.07335,1.97245 0.31072,0.34375 0.86197,1.14675 1.22497,1.78447 0.65253,1.14628 4.89343,5.57395 6.85805,7.16005 0.5583,0.45073 1.39167,1.00375 1.85192,1.2289 0.46025,0.22518 1.14176,0.66103 1.51446,0.96855 0.37269,0.30753 1.21644,0.7609 1.875,1.00753 0.65854,0.24662 1.59552,0.70687 2.08212,1.02277 0.48663,0.3159 1.89288,0.79183 3.125,1.0576 1.23215,0.2658 2.69025,0.67795 3.24025,0.9159 1.82292,0.78865 7.51615,1.06393 11.25,0.54398 z M 173.05605,461.21277 c -0.33011,-0.13467 -0.77707,-0.71765 -1.06471,-1.38867 -0.27266,-0.6361 -0.71409,-1.43413 -0.98095,-1.77338 -0.26686,-0.33925 -0.66823,-1.2464 -0.89192,-2.01587 -0.22369,-0.76948 -0.68092,-1.75855 -1.01606,-2.19795 -0.33514,-0.43938 -0.79532,-1.34873 -1.02262,-2.02075 -0.2273,-0.67203 -0.68347,-1.6328 -1.0137,-2.13508 -0.33023,-0.5023 -0.76404,-1.45692 -0.96403,-2.12145 -0.19999,-0.6645 -0.63306,-1.61535 -0.96238,-2.11297 -0.32932,-0.49765 -0.77131,-1.48583 -0.9822,-2.19598 -0.21089,-0.71012 -0.7189,-1.76707 -1.12892,-2.34877 -0.41002,-0.58168 -0.86299,-1.51055 -1.0066,-2.06418 -0.14361,-0.55362 -0.54212,-1.38747 -0.88557,-1.85297 -0.34344,-0.46553 -0.80274,-1.4597 -1.02065,-2.2093 -0.21791,-0.7496 -0.67833,-1.78923 -1.02314,-2.31028 -0.34481,-0.52105 -0.79019,-1.48982 -0.98973,-2.15282 -0.19954,-0.66303 -0.63494,-1.60208 -0.96755,-2.08678 -0.33262,-0.4847 -0.83779,-1.50962 -1.1226,-2.2776 -0.59146,-1.59485 -1.22246,-2.27997 -2.64113,-2.86765 -0.54812,-0.22705 -1.473,-0.6282 -2.05529,-0.89145 -0.58229,-0.26322 -1.95337,-0.64832 -3.04684,-0.85575 -1.09348,-0.20742 -2.58581,-0.64805 -3.3163,-0.97917 -0.73049,-0.3311 -2.28441,-0.78105 -3.45316,-0.99988 -1.16875,-0.21885 -2.66215,-0.67872 -3.31866,-1.02195 -0.65651,-0.34325 -1.67409,-0.68992 -2.26128,-0.7704 -0.90867,-0.12455 -1.18375,-0.0486 -1.84763,0.51 -0.42901,0.36098 -1.38018,0.92248 -2.11372,1.24775 -0.73354,0.32528 -1.55642,0.83885 -1.82863,1.14125 -0.27221,0.30243 -0.87289,0.70778 -1.33485,0.9008 -0.46196,0.193 -1.18095,0.6379 -1.59776,0.9886 -0.4168,0.35073 -1.16612,0.80825 -1.66515,1.0167 -0.49903,0.20845 -1.18857,0.6419 -1.53232,0.96323 -0.34375,0.32132 -1.0881,0.81625 -1.65412,1.0998 -0.56601,0.28355 -1.35351,0.78677 -1.75,1.1183 -0.39648,0.3315 -0.9814,0.6843 -1.29981,0.784 -0.3184,0.0997 -0.95243,0.50922 -1.40894,0.91002 -0.45651,0.40083 -1.26474,0.90793 -1.79607,1.12693 -0.53134,0.21897 -1.2232,0.63572 -1.53748,0.92612 -0.54816,0.5065 -1.16945,0.89663 -4.05947,2.54908 -0.72144,0.4125 -1.67739,1.05975 -2.12435,1.43832 -0.44696,0.37858 -1.24737,0.86718 -1.7787,1.08575 -0.53134,0.2186 -1.24731,0.66225 -1.59106,0.98593 -0.34375,0.32365 -1.01993,0.75345 -1.50262,0.95507 -0.48268,0.20163 -1.18717,0.65348 -1.56553,1.00413 -0.82014,0.7601 -2.399525,1.28087 -3.242718,1.06922 -0.33339,-0.0837 -1.046707,-0.50232 -1.585147,-0.93037 -0.538443,-0.42803 -1.372735,-0.94278 -1.853985,-1.1439 -0.48125,-0.20113 -1.15625,-0.62813 -1.5,-0.94888 -0.34375,-0.32075 -0.999342,-0.77217 -1.45687,-1.00317 -0.457527,-0.23098 -1.33802,-0.80633 -1.95665,-1.27853 -0.618628,-0.47222 -1.267475,-0.85857 -1.441883,-0.85857 -0.174407,0 -0.531415,-0.2373 -0.79335,-0.52733 -0.261937,-0.29005 -1.094997,-0.84025 -1.851247,-1.22267 -0.75625,-0.38243 -1.580007,-0.92235 -1.830573,-1.19983 -0.250567,-0.27747 -0.813067,-0.64782 -1.25,-0.82302 -0.436935,-0.1752 -1.11984,-0.58548 -1.517567,-0.9117 -0.397725,-0.32623 -1.26517,-0.86783 -1.927653,-1.20353 -1.62783,-0.82487 -1.855887,-1.65407 -1.482407,-5.38995 0.270853,-2.70925 0.39345,-3.46422 1.111902,-6.84697 0.20442,-0.9625 0.547198,-3.775 0.761728,-6.25 0.214528,-2.475 0.668642,-5.85598 1.00914,-7.5133 0.3405,-1.6573 0.785563,-4.97605 0.98903,-7.375 0.203467,-2.39893 0.587927,-5.42105 0.854355,-6.71583 0.266427,-1.29475 0.416312,-2.53225 0.333075,-2.75 -0.180005,-0.47087 -1.60383,-2.36332 -2.452425,-3.2596 -1.855925,-1.96022 -7.735368,-8.73767 -9.07252,-10.45822 -0.458195,-0.58958 -1.265775,-1.2927 -1.794623,-1.5625 -0.931697,-0.47533 -1.58373,-0.49055 -21.007217,-0.49055 l -20.045672,0 -1.181585,-1.1875 c -0.896885,-0.90138 -1.284386,-1.54378 -1.608231,-2.66615 -0.234654,-0.81325 -0.702842,-1.882 -1.040415,-2.375 -0.337573,-0.493 -0.781737,-1.46875 -0.98703,-2.16838 -0.205293,-0.69962 -0.649133,-1.64595 -0.986312,-2.10297 -0.337179,-0.45703 -0.791346,-1.44425 -1.00926,-2.19385 -0.217915,-0.7496 -0.678327,-1.78923 -1.023139,-2.31028 -0.344812,-0.52105 -0.790557,-1.49102 -0.990544,-2.15555 -0.199988,-0.6645 -0.648429,-1.63857 -0.996536,-2.1646 -0.767351,-1.15955 -1.48073,-3.89282 -1.252919,-4.8005 0.09113,-0.3631 0.527208,-1.03607 0.96905,-1.4955 0.441841,-0.45942 1.365848,-1.53232 2.053348,-2.38422 1.424391,-1.765 3.25893,-3.94631 4.442375,-5.28207 0.444193,-0.50136 1.257625,-1.42936 1.807625,-2.06221 0.55,-0.63285 1.39375,-1.58417 1.875,-2.11405 0.48125,-0.52987 1.4375,-1.67318 2.125,-2.54068 1.36021,-1.71633 4.560967,-5.52663 5.982243,-7.12149 0.907615,-1.01846 1.320867,-1.49122 4.859912,-5.55967 1.313828,-1.51036 2.062677,-2.59512 2.163862,-3.13448 0.213978,-1.1406 -0.31948,-6.63571 -0.879132,-9.05585 -0.489888,-2.11847 -0.857562,-4.58303 -1.226125,-8.21884 -0.257788,-2.543 -0.60997,-3.17842 -2.317787,-4.18183 -0.6146,-0.3611 -1.413961,-0.95304 -1.77635,-1.31544 -0.362393,-0.36239 -0.824143,-0.65889 -1.02611,-0.65889 -0.201968,0 -0.875985,-0.38835 -1.497816,-0.86301 -0.621832,-0.47465 -1.566099,-1.08518 -2.098374,-1.35673 -0.532275,-0.27154 -1.12147,-0.67891 -1.309323,-0.90526 -0.187852,-0.22635 -0.777047,-0.63372 -1.309323,-0.90527 -0.532274,-0.27154 -1.476542,-0.88207 -2.098374,-1.35672 -0.621831,-0.47466 -1.271123,-0.86301 -1.442873,-0.86301 -0.17175,0 -0.585007,-0.29653 -0.918352,-0.65896 -0.333343,-0.36243 -1.079196,-0.87173 -1.657449,-1.13178 -0.578254,-0.26005 -1.365755,-0.73564 -1.75,-1.05687 -0.384246,-0.32124 -1.156155,-0.81621 -1.715353,-1.09996 -0.559199,-0.28374 -1.170423,-0.70108 -1.358276,-0.92743 -0.187853,-0.22635 -0.799077,-0.6407 -1.358276,-0.92078 -0.559198,-0.28008 -1.297974,-0.77214 -1.641724,-1.09346 -0.34375,-0.32133 -1.021034,-0.74967 -1.505076,-0.95186 -0.484041,-0.20219 -1.102791,-0.61505 -1.375,-0.91746 -0.272208,-0.30242 -1.057424,-0.79976 -1.744924,-1.10522 -0.6875,-0.30546 -1.411684,-0.75109 -1.609296,-0.9903 -0.197613,-0.23921 -0.88133,-0.69946 -1.5193705,-1.02278 -1.1627897,-0.58923 -2.2779857,-1.7849 -2.5922777,-2.77935 -0.093052,-0.29443 0.173759,-2.13313 0.5985697,-4.125 0.4215515,-1.97659 0.934909,-5.45004 1.1407945,-7.71879 0.2058855,-2.26875 0.5458138,-4.8 0.755396,-5.625 0.2095825,-0.825 0.5952278,-2.68125 0.8569895,-4.125 0.5643835,-3.11286 0.7274905,-3.30011 3.2354955,-3.7143 0.981966,-0.16216 2.313762,-0.57109 2.959546,-0.90872 0.645784,-0.33763 2.121928,-0.79363 3.280319,-1.01334 1.158391,-0.21971 2.620891,-0.65987 3.25,-0.97814 0.629109,-0.31827 2.100084,-0.76967 3.268834,-1.00311 1.16875,-0.23344 2.723167,-0.7031 3.454258,-1.04367 0.731092,-0.34057 2.174252,-0.7809 3.207019,-0.9785 1.032768,-0.1976 2.628351,-0.68433 3.545741,-1.08162 0.91739,-0.39728 2.442957,-0.85351 3.390147,-1.01382 0.94719,-0.16032 2.26906,-0.56862 2.937487,-0.90734 0.668428,-0.33872 2.082903,-0.78185 3.143275,-0.98473 2.976298,-0.56946 3.447753,-0.7966 4.892611,-2.35722 1.036572,-1.11962 1.44199,-1.79496 1.76181,-2.93479 0.228477,-0.81429 0.69448,-1.85878 1.03556,-2.32109 0.341079,-0.46231 0.798437,-1.45387 1.016352,-2.20346 0.217915,-0.7496 0.668002,-1.77362 1.000195,-2.2756 0.332195,-0.50198 0.764962,-1.44756 0.961707,-2.1013 0.196745,-0.65373 0.733723,-1.7744 1.19328,-2.49037 0.781886,-1.21814 0.835558,-1.44 0.835558,-3.4538 0,-1.98794 -0.06126,-2.25067 -0.803402,-3.44553 -0.44187,-0.71143 -0.977108,-1.87843 -1.189415,-2.59335 -0.212308,-0.71492 -0.673441,-1.71461 -1.024738,-2.22153 -0.351298,-0.50693 -0.793412,-1.50808 -0.982478,-2.22479 -0.189065,-0.71672 -0.61654,-1.71532 -0.949945,-2.21913 -0.333402,-0.50381 -0.797282,-1.57335 -1.03084,-2.37676 -0.233557,-0.80342 -0.70677,-1.88706 -1.051582,-2.40811 -0.34481,-0.52104 -0.790555,-1.49104 -0.990542,-2.15555 -0.199988,-0.66451 -0.635408,-1.61891 -0.967603,-2.12088 -0.332193,-0.50198 -0.78228,-1.526 -1.000195,-2.2756 -0.217915,-0.7496 -0.67208,-1.73683 -1.00926,-2.19385 -0.33718,-0.45702 -0.791345,-1.44426 -1.00926,-2.19385 -0.217915,-0.7496 -0.678328,-1.78922 -1.02314,-2.31027 -0.34481,-0.52104 -0.790555,-1.49104 -0.990542,-2.15555 -0.199988,-0.66451 -0.645705,-1.63446 -0.990483,-2.15546 -0.676888,-1.02285 -1.19539,-3.15821 -0.93969,-3.86997 0.08692,-0.24195 0.505677,-0.79042 0.930575,-1.21884 0.424898,-0.42842 1.18795,-1.27217 1.695675,-1.875 0.507723,-0.60283 1.520222,-1.8066 2.25,-2.67504 4.409395,-5.24719 7.968165,-9.28774 10.224365,-11.60852 1.658778,-1.70626 2.12541,-1.78108 4.399195,-0.70539 0.850682,0.40244 2.538182,0.91553 3.75,1.1402 1.211817,0.22467 2.80249,0.6805 3.534825,1.01296 0.732337,0.33247 2.288417,0.77151 3.45796,0.97565 1.169542,0.20414 2.740152,0.65213 3.490243,0.99553 0.75009,0.3434 1.781507,0.69171 2.292039,0.77403 2.054235,0.3312 3.499613,0.71309 4.903735,1.29566 0.811523,0.3367 2.43179,0.7791 3.600593,0.98311 1.168805,0.20402 2.646867,0.63533 3.284585,0.95849 0.637717,0.32316 2.175553,0.7629 3.41741,0.97721 1.24186,0.21431 2.756075,0.61565 3.36492,0.89186 1.484235,0.67335 2.380827,0.64276 3.277585,-0.11181 0.40853,-0.34375 0.89428,-0.625 1.07944,-0.625 0.18517,0 0.8703,-0.40733 1.52252,-0.90518 0.65222,-0.49785 1.535,-1.05106 1.96173,-1.22936 0.42673,-0.1783 0.99859,-0.5748 1.27079,-0.88112 0.27222,-0.30631 0.96805,-0.76865 1.5463,-1.02741 0.57825,-0.25877 1.36575,-0.73286 1.75,-1.05353 0.38425,-0.32068 1.09238,-0.78048 1.57363,-1.02177 0.48125,-0.24129 1.15625,-0.69639 1.5,-1.01134 0.34375,-0.31495 1.15724,-0.81974 1.80774,-1.12176 1.45311,-0.67465 2.05991,-1.60754 2.43825,-3.74853 0.15794,-0.89375 0.4969,-2.46875 0.75326,-3.5 0.25635,-1.03125 0.64824,-3.75312 0.87086,-6.0486 0.22262,-2.29549 0.67141,-5.27674 0.99731,-6.625 0.32589,-1.34827 0.77524,-4.30765 0.99854,-6.5764 0.2233,-2.26875 0.68541,-5.28945 1.02692,-6.71266 0.34151,-1.42321 0.73644,-3.78571 0.87762,-5.25 0.42687,-4.42739 0.65886,-4.80078 3.36478,-5.41561 0.95684,-0.21742 2.52722,-0.71585 3.48972,-1.10763 0.9625,-0.39178 2.36875,-0.79182 3.125,-0.88897 0.75625,-0.0972 2.10625,-0.49395 3,-0.88176 0.89375,-0.38781 2.63289,-0.89368 3.86476,-1.12416 1.23187,-0.23048 2.78286,-0.70303 3.44664,-1.05011 0.67322,-0.35202 2.0334,-0.75013 3.07607,-0.90035 l 1.86919,-0.26928 1.50977,1.61276 c 0.83037,0.88702 1.93496,2.06277 2.45465,2.61277 1.38853,1.46952 8.25935,9.31235 9.33285,10.65315 0.50779,0.63424 1.51902,1.78727 2.24717,2.56231 0.72814,0.77503 1.7739,1.93535 2.3239,2.5785 1.05507,1.23375 2.34409,2.66829 4,4.45157 0.55,0.59231 1.45,1.60799 2,2.25707 2.45843,2.90132 4.0033,4.32101 5,4.59486 0.63944,0.17569 4.21214,0.27525 9.90878,0.27614 l 8.90878,0.001 1.34122,-1.11932 c 0.73767,-0.61563 1.90372,-1.80663 2.59122,-2.64666 1.72933,-2.11301 7.01095,-8.17688 9.32815,-10.70973 1.05702,-1.15539 2.2913,-2.50539 2.74286,-3 1.67404,-1.83366 6.71042,-7.67845 7.34526,-8.52429 0.36121,-0.48125 1.37156,-1.62935 2.24523,-2.55134 0.87368,-0.92198 1.77241,-1.93448 1.9972,-2.25 0.61652,-0.86537 3.25158,-0.78696 5.4663,0.16266 0.89375,0.38322 2.525,0.8891 3.625,1.12418 1.1,0.23507 2.77173,0.73677 3.71495,1.11488 0.94321,0.37811 2.63071,0.86013 3.75,1.07117 1.11927,0.21103 2.56076,0.65001 3.20329,0.97552 0.64253,0.32551 1.97432,0.72495 2.95954,0.88766 0.98522,0.1627 2.0105,0.47458 2.2784,0.69305 0.35251,0.28747 0.61857,1.12246 0.96302,3.02222 0.26176,1.44375 0.64797,3.3 0.85824,4.125 0.21027,0.825 0.5637,3.35625 0.78538,5.625 0.2217,2.26875 0.67218,5.25 1.00105,6.625 0.32888,1.375 0.77146,4.3 0.98348,6.5 0.21205,2.2 0.66067,5.18125 0.99695,6.625 0.33627,1.44375 0.7337,3.85054 0.8832,5.34843 0.35393,3.54601 0.85235,4.46485 2.9975,5.52587 0.48125,0.23803 1.15625,0.69522 1.5,1.01598 0.34375,0.32076 1.04267,0.75767 1.5532,0.97092 0.5105,0.21325 1.298,0.71029 1.75,1.10454 0.45198,0.39424 1.08232,0.79815 1.40073,0.89759 0.31839,0.0994 0.95242,0.50873 1.40895,0.90955 0.4565,0.40082 1.22684,0.89458 1.71189,1.09724 0.48503,0.20267 1.25421,0.70855 1.70928,1.12418 0.45505,0.41563 0.9556,0.7557 1.1123,0.7557 0.1567,0 0.70958,0.3375 1.22865,0.75 1.11822,0.88865 1.87985,0.93787 3.6592,0.23651 0.7165,-0.28241 2.2113,-0.68481 3.32178,-0.89421 1.11045,-0.20941 2.80652,-0.69149 3.76902,-1.07131 0.9625,-0.37981 2.548,-0.81932 3.52332,-0.97668 0.97535,-0.15736 2.38948,-0.56818 3.14253,-0.91294 0.75303,-0.34475 2.26483,-0.78319 3.35952,-0.9743 1.0947,-0.19111 2.73895,-0.64695 3.65388,-1.01298 0.91495,-0.36603 2.5989,-0.84079 3.74213,-1.05503 1.14325,-0.21423 2.6505,-0.65872 3.34944,-0.98773 0.69898,-0.32902 2.26565,-0.7717 3.48156,-0.98373 1.21587,-0.21204 2.72525,-0.6437 3.35415,-0.95927 3.00245,-1.5065 3.54614,-1.28586 6.89347,2.79745 0.275,0.33547 0.9121,1.07328 1.4158,1.63958 0.5037,0.5663 1.5162,1.71331 2.25,2.54891 0.7338,0.8356 1.64063,1.8481 2.01513,2.25 0.63297,0.67925 2.73472,3.12587 5.88157,6.84661 1.0718,1.26726 1.3125,1.72302 1.3125,2.48512 0,1.26172 -0.65953,3.398 -1.38968,4.50134 -0.32932,0.49764 -0.7624,1.44848 -0.96237,2.11299 -0.2,0.66451 -0.64575,1.63451 -0.99055,2.15555 -0.34483,0.52105 -0.80522,1.56067 -1.02315,2.31027 -0.2179,0.74959 -0.67207,1.73683 -1.00925,2.19385 -0.33718,0.45702 -0.78102,1.40336 -0.9863,2.10297 -0.2053,0.69962 -0.6471,1.67191 -0.98177,2.16065 -0.3347,0.48874 -0.77643,1.45404 -0.98166,2.1451 -0.20522,0.69106 -0.7143,1.86618 -1.13127,2.61138 -0.41697,0.74519 -0.83437,1.77353 -0.92755,2.28519 -0.0931,0.51167 -0.49127,1.43786 -0.88467,2.0582 -0.39343,0.62035 -0.89046,1.73038 -1.10453,2.46673 -0.21405,0.73636 -0.66507,1.71276 -1.00225,2.16978 -0.33718,0.45702 -0.78213,1.40336 -0.98878,2.10297 -0.20665,0.69962 -0.7151,1.77828 -1.12989,2.39703 -1.05223,1.56957 -1.05601,3.23253 -0.0109,4.77488 0.41003,0.60506 0.9248,1.70926 1.14396,2.45376 0.21914,0.7445 0.67465,1.757 1.01222,2.25 0.33758,0.493 0.78175,1.46877 0.98705,2.16839 0.20528,0.69961 0.64912,1.64595 0.9863,2.10297 0.33718,0.45702 0.7863,1.42694 0.99807,2.15537 0.21175,0.72844 0.74083,1.9196 1.17568,2.64703 0.43485,0.72743 0.9251,1.55013 1.08945,1.82822 0.4879,0.82561 2.6637,1.84228 4.8169,2.25073 1.10747,0.21009 2.6174,0.65842 3.35542,0.99629 0.73803,0.33787 2.28348,0.79294 3.43433,1.01125 1.15087,0.21832 2.61567,0.66207 3.25515,0.98611 0.63948,0.32404 2.08085,0.76335 3.2031,0.97623 1.12222,0.21288 2.58472,0.66288 3.25,1 0.66525,0.33712 2.15735,0.7927 3.31572,1.01241 1.15841,0.21971 2.61703,0.66655 3.2414,0.99299 0.62441,0.32644 2.1323,0.78036 3.35096,1.00871 1.21862,0.22835 2.73897,0.68036 3.37855,1.00446 0.63959,0.3241 1.60667,0.66538 2.14907,0.75839 2.58533,0.44335 2.8291,0.57511 3.4948,1.88878 0.79285,1.56459 1.0345,2.83952 1.49972,7.9124 0.2045,2.22991 0.64581,5.32366 0.98071,6.875 0.69547,3.22174 1.26592,8.14388 1.04557,9.02181 -0.2403,0.9574 -1.12522,1.89797 -2.38747,2.5376 -0.6482,0.32847 -1.3327,0.78296 -1.52111,1.00999 -0.18842,0.22702 -0.77807,0.63495 -1.31035,0.90649 -0.53227,0.27155 -1.47654,0.88208 -2.09837,1.35673 -0.62183,0.47466 -1.29047,0.86301 -1.48587,0.86301 -0.19541,0 -0.77273,0.39375 -1.28293,0.875 -0.51023,0.48125 -1.06437,0.875 -1.23143,0.875 -0.16707,0 -0.81255,0.38835 -1.43437,0.86301 -0.62183,0.47465 -1.5661,1.08518 -2.09837,1.35672 -0.53228,0.27155 -1.12148,0.67892 -1.30933,0.90527 -0.18785,0.22635 -0.77705,0.63372 -1.30933,0.90526 -0.53227,0.27155 -1.47654,0.88208 -2.09837,1.35673 -0.62183,0.47466 -1.27113,0.86301 -1.44287,0.86301 -0.17175,0 -0.585,0.29653 -0.91836,0.65896 -0.33335,0.36242 -1.07919,0.87172 -1.65745,1.13177 -0.57824,0.26005 -1.36574,0.73565 -1.75,1.05688 -0.38424,0.32123 -1.15615,0.81621 -1.71535,1.09995 -0.5592,0.28374 -1.17087,0.70164 -1.35929,0.92867 -0.18841,0.22702 -0.85588,0.67309 -1.48328,0.99125 -0.62738,0.31816 -1.3409,0.80005 -1.5856,1.07087 -0.2447,0.27082 -0.90065,0.6979 -1.45768,0.94908 -0.799,0.3603 -1.16007,0.75014 -1.71089,1.84713 -0.73998,1.47367 -1.05326,3.25828 -1.5168,8.64044 -0.1421,1.65 -0.55066,4.22732 -0.90791,5.72737 -0.91842,3.8566 -0.91092,5.07518 0.0382,6.206 0.4125,0.49147 1.3125,1.59021 2,2.44165 1.37185,1.69898 2.94525,3.57913 4.2888,5.12498 0.478,0.55 1.2836,1.47788 1.79015,2.06195 0.50657,0.58407 1.37105,1.55757 1.92105,2.16333 0.55,0.60576 1.5625,1.80201 2.25,2.65834 2.00612,2.49875 4.78955,5.78994 7.60423,8.99138 3.53367,4.01927 4.98687,5.72507 5.49377,6.4487 0.66348,0.94717 0.74172,2.15725 0.2071,3.20287 -0.20342,0.39788 -0.44595,1.07693 -0.53893,1.50898 -0.093,0.43202 -0.49657,1.30197 -0.89687,1.93317 -0.4003,0.63123 -0.90298,1.75015 -1.11705,2.4865 -0.21405,0.73635 -0.66507,1.71275 -1.00225,2.16978 -0.33718,0.45702 -0.79135,1.44425 -1.00925,2.19385 -0.21793,0.7496 -0.66803,1.77362 -1.0002,2.2756 -0.3322,0.50197 -0.76763,1.45637 -0.9676,2.12087 -0.2,0.66453 -0.63503,1.61915 -0.96673,2.12145 -0.33172,0.50228 -0.74572,1.36323 -0.92002,1.91323 -0.45088,1.42262 -0.89957,2.05102 -1.82605,2.5573 -0.75082,0.41027 -2.2988,0.45185 -21.13663,0.5677 l -20.32647,0.125 -1.49177,1.625 c -0.82048,0.89375 -1.96731,2.16012 -2.54853,2.8142 -2.27845,2.564 -2.84025,3.2006 -3.73843,4.2364 -0.51239,0.59092 -1.32419,1.5244 -1.80397,2.0744 -2.61933,3.00265 -3.4173,4.02437 -3.54713,4.54155 -0.19887,0.79242 0.5981,9.84825 1.0536,11.97162 0.76003,3.54293 0.87365,4.32863 1.22723,8.48683 0.19877,2.3375 0.6406,5.61635 0.98185,7.2863 0.58867,2.8809 1.3951,10.2056 1.3951,12.6716 0,1.49167 -0.39482,2.31287 -1.29035,2.6838 -0.399,0.1653 -1.13562,0.62645 -1.6369,1.02482 -0.50127,0.39835 -1.3696,0.9294 -1.92958,1.1801 -0.56,0.25068 -1.2409,0.7064 -1.5131,1.01273 -0.27219,0.3063 -0.84407,0.7028 -1.27079,0.8811 -0.42673,0.1783 -1.30951,0.73152 -1.96173,1.22937 -0.65223,0.49785 -1.347,0.90518 -1.54398,0.90518 -0.19697,0 -0.72144,0.3472 -1.1655,0.77157 -0.44404,0.42435 -1.18712,0.93023 -1.65127,1.12418 -0.46415,0.19392 -1.21742,0.68055 -1.67392,1.08137 -0.45653,0.4008 -1.09056,0.80985 -1.40895,0.90898 -0.31841,0.0991 -0.99205,0.55085 -1.49696,1.00382 -0.61937,0.55568 -1.28104,0.87805 -2.03392,0.99093 -1.19642,0.17942 -1.78017,-0.0242 -3.01573,-1.05225 -0.39472,-0.3284 -1.12597,-0.76768 -1.625,-0.97613 -0.49902,-0.20845 -1.18857,-0.64832 -1.53232,-0.97747 -0.34375,-0.32915 -1.0333,-0.76903 -1.53233,-0.97748 -0.49902,-0.20845 -1.23027,-0.6486 -1.625,-0.9781 -0.39472,-0.3295 -1.11142,-0.79947 -1.59267,-1.04442 -0.48125,-0.24495 -1.19795,-0.71493 -1.59268,-1.04443 -0.39472,-0.3295 -1.11069,-0.7633 -1.59104,-0.964 -0.48038,-0.2007 -1.2469,-0.69287 -1.7034,-1.0937 -0.45653,-0.4008 -1.09055,-0.81032 -1.40896,-0.91002 -0.3184,-0.0997 -0.90432,-0.45335 -1.30207,-0.7859 -0.39773,-0.33255 -1.24852,-0.8709 -1.8907,-1.1963 -0.64215,-0.3254 -1.32765,-0.78455 -1.52331,-1.0203 -0.19567,-0.23578 -0.8636,-0.64553 -1.4843,-0.91058 -0.6207,-0.26505 -1.40979,-0.74997 -1.75354,-1.07757 -0.34375,-0.32763 -1.0277,-0.7639 -1.5199,-0.9695 -0.4922,-0.2056 -1.04763,-0.55785 -1.2343,-0.78275 -0.18667,-0.22493 -0.90896,-0.69653 -1.6051,-1.048 -0.69613,-0.35148 -1.58865,-0.90935 -1.98338,-1.23975 -0.39472,-0.3304 -1.10791,-0.76375 -1.58485,-0.96303 -0.47694,-0.1993 -1.19792,-0.64065 -1.60218,-0.9808 -1.16167,-0.9775 -2.20003,-1.04942 -3.89308,-0.26967 -0.79871,0.36785 -2.65645,0.93672 -4.12831,1.26415 -1.47185,0.32745 -3.13145,0.82765 -3.68799,1.11157 -0.55654,0.28393 -1.9398,0.69218 -3.0739,0.90723 -1.13411,0.21502 -2.98808,0.7931 -4.11994,1.28457 -1.98124,0.8603 -2.09461,0.955 -3.04228,2.54118 -0.54139,0.90617 -1.09733,2.07112 -1.23543,2.58877 -0.13809,0.51763 -0.53817,1.28235 -0.88906,1.69935 -0.35088,0.417 -0.81067,1.3397 -1.02174,2.05045 -0.21106,0.71075 -0.65698,1.70515 -0.99093,2.20978 -0.33394,0.50462 -0.78545,1.5308 -1.00337,2.2804 -0.21791,0.7496 -0.67721,1.74377 -1.02066,2.2093 -0.34344,0.4655 -0.74181,1.29935 -0.88525,1.85297 -0.14344,0.55363 -0.6326,1.62533 -1.08703,2.38158 -0.45442,0.75625 -0.97043,1.825 -1.14669,2.375 -0.17627,0.55 -0.57466,1.3375 -0.88531,1.75 -0.31066,0.4125 -0.74628,1.37865 -0.96805,2.14702 -0.22177,0.76838 -0.67909,1.77095 -1.01627,2.22798 -0.33718,0.45702 -0.79302,1.45 -1.01297,2.20662 -0.21995,0.7566 -0.67612,1.77903 -1.01369,2.27203 -0.33757,0.493 -0.78136,1.45885 -0.9862,2.14635 -0.22338,0.74975 -0.80996,1.75025 -1.46569,2.5 l -1.09327,1.25 -11.96409,0.0503 c -6.91683,0.0291 -12.20411,-0.0476 -12.53304,-0.18185 z M 196,348.9739 c 0.89375,-0.14875 2.58125,-0.54475 3.75,-0.87998 1.16875,-0.33525 2.9125,-0.7317 3.875,-0.88102 0.9625,-0.14933 2.20779,-0.5393 2.76732,-0.86663 0.55953,-0.3273 1.77435,-0.77067 2.6996,-0.98525 0.92525,-0.21457 2.09871,-0.67522 2.60768,-1.02365 0.50897,-0.34842 1.51733,-0.80715 2.2408,-1.01937 0.72348,-0.21223 1.62348,-0.63925 2,-0.94895 0.37653,-0.30968 1.18332,-0.75865 1.79287,-0.9977 0.60955,-0.23905 1.43876,-0.71273 1.84268,-1.0526 0.40392,-0.33988 1.1427,-0.78853 1.64173,-0.99698 0.49902,-0.20845 1.18857,-0.64145 1.53232,-0.9622 0.34375,-0.32075 0.97176,-0.75792 1.39559,-0.97147 0.81482,-0.41058 2.26444,-1.51015 4.07261,-3.08915 1.38986,-1.21372 7.58778,-7.41666 8.9068,-8.91403 1.9521,-2.21603 4.73548,-6.04791 4.98987,-6.86955 0.0986,-0.31841 0.49874,-0.9428 0.88923,-1.38754 0.39048,-0.44474 0.90631,-1.30922 1.14627,-1.92107 0.23997,-0.61186 0.68786,-1.41834 0.9953,-1.7922 0.30745,-0.37386 0.75208,-1.27386 0.98809,-2 0.236,-0.72614 0.69017,-1.67047 1.00926,-2.09851 0.31909,-0.42803 0.75928,-1.55052 0.97818,-2.49442 0.2189,-0.9439 0.68492,-2.20575 1.03558,-2.80411 0.385,-0.65695 0.77041,-1.89713 0.9729,-3.13058 0.18442,-1.12345 0.61259,-2.77389 0.9515,-3.66764 0.38797,-1.02323 0.71805,-2.64339 0.8913,-4.375 0.46875,-4.68478 0.78037,-10.61774 0.64862,-12.34775 -0.0692,-0.90874 -0.24227,-3.33975 -0.38455,-5.40225 -0.32708,-4.74104 -0.60473,-6.51345 -1.24835,-7.96847 -0.28198,-0.63745 -0.66822,-2.11978 -0.85833,-3.29407 -0.21549,-1.33128 -0.58662,-2.54634 -0.98582,-3.2275 -0.35212,-0.60085 -0.76261,-1.69263 -0.91222,-2.4262 -0.1496,-0.73357 -0.59864,-1.87268 -0.99787,-2.53136 -0.39923,-0.65868 -0.90168,-1.80238 -1.11657,-2.54156 -0.21488,-0.73918 -0.57278,-1.49401 -0.79533,-1.6774 -0.22256,-0.18339 -0.77697,-1.14907 -1.23204,-2.14594 -0.45507,-0.99688 -0.92957,-1.8125 -1.05444,-1.8125 -0.12488,0 -0.52291,-0.59063 -0.88453,-1.3125 -0.62193,-1.24154 -1.48983,-2.48503 -3.07744,-4.40922 -0.38424,-0.46569 -0.81847,-1.06267 -0.96496,-1.32661 -0.83828,-1.51038 -9.56494,-10.22832 -11.08416,-11.07308 -0.25083,-0.13948 -0.83708,-0.56898 -1.30278,-0.95446 -1.62616,-1.34606 -3.60345,-2.70734 -4.4683,-3.07623 -0.47937,-0.20447 -1.09926,-0.58565 -1.37752,-0.84707 -0.27827,-0.26141 -1.1798,-0.77168 -2.00341,-1.13392 -0.82361,-0.36224 -1.72248,-0.86369 -1.99748,-1.11432 -0.275,-0.25064 -1.11395,-0.63587 -1.86433,-0.85606 -0.75038,-0.2202 -1.76288,-0.67614 -2.25,-1.01321 -0.48712,-0.33706 -1.66538,-0.79337 -2.61835,-1.01402 -0.95297,-0.22065 -2.19047,-0.66802 -2.75,-0.99416 -0.58975,-0.34376 -1.96298,-0.75605 -3.26732,-0.98096 -1.2375,-0.21339 -2.89435,-0.61447 -3.68188,-0.8913 -2.24087,-0.78769 -4.32336,-0.99879 -11.44312,-1.15996 -8.19574,-0.18554 -13.02082,0.12371 -16,1.02547 -1.16875,0.35377 -3.1375,0.81616 -4.375,1.02753 -1.34175,0.22919 -2.67099,0.63013 -3.2929,0.99325 -0.5736,0.33492 -1.81109,0.7851 -2.75,1.00041 -0.9389,0.21531 -2.11803,0.67346 -2.62028,1.0181 -0.50226,0.34464 -1.45851,0.78991 -2.125,0.9895 -0.6665,0.19959 -1.66182,0.68214 -2.21182,1.07234 -0.55,0.3902 -1.41288,0.84369 -1.9175,1.00776 -0.50463,0.16406 -1.0604,0.47047 -1.23505,0.68091 -0.17464,0.21043 -0.94301,0.69965 -1.70749,1.08715 -0.76448,0.3875 -1.6627,0.99707 -1.99604,1.3546 -0.33334,0.35753 -0.73497,0.65006 -0.8925,0.65006 -0.15753,0 -0.72855,0.37095 -1.26892,0.82434 -0.54037,0.45338 -1.33755,1.04401 -1.7715,1.3125 -2.31668,1.43336 -10.5959,9.73292 -11.58469,11.61316 -0.18077,0.34375 -0.76127,1.11896 -1.28999,1.7227 -0.52873,0.60373 -0.96132,1.23099 -0.96132,1.39392 0,0.16292 -0.27246,0.55219 -0.60547,0.86504 -0.33302,0.31284 -0.93687,1.26256 -1.34189,2.11048 -0.40503,0.84793 -0.91432,1.68932 -1.13174,1.86977 -0.21743,0.18045 -0.53136,0.74096 -0.69763,1.24559 -0.16626,0.50462 -0.67826,1.4645 -1.13778,2.13305 -0.45952,0.66856 -0.83549,1.41976 -0.83549,1.66934 0,0.24958 -0.39601,1.21352 -0.88001,2.14209 -0.48401,0.92858 -1.05103,2.42576 -1.26007,3.32708 -0.20902,0.90132 -0.61378,2.03413 -0.89946,2.51735 -0.28567,0.48322 -0.72892,2.03848 -0.985,3.45611 -0.25608,1.41764 -0.75331,3.61139 -1.10496,4.875 -1.34975,4.85026 -1.36668,18.5745 -0.0292,23.67248 0.3427,1.30625 0.80816,3.44375 1.03436,4.75 0.2262,1.30625 0.72842,3.10625 1.11604,4 0.38762,0.89375 0.82249,2.1875 0.96638,2.875 0.1439,0.6875 0.66219,2.01755 1.15177,2.95566 0.48958,0.93812 0.89015,1.90703 0.89015,2.15313 0,0.2461 0.33079,0.86371 0.7351,1.37246 0.4043,0.50875 0.91672,1.47181 1.1387,2.14013 0.22198,0.66833 0.5788,1.36054 0.79292,1.53825 0.21413,0.17771 0.71529,0.99601 1.11368,1.81845 0.3984,0.82245 0.84167,1.56785 0.98505,1.65647 0.25571,0.15803 1.04856,1.25023 2.89677,3.99045 0.51007,0.75625 1.21661,1.67172 1.57009,2.03438 0.35348,0.36266 1.14894,1.23064 1.76769,1.92885 2.74044,3.09234 7.09664,7.23303 8.55695,8.1336 0.44993,0.27747 1.26018,0.87545 1.80055,1.32883 0.54037,0.45339 1.11139,0.82434 1.26892,0.82434 0.15753,0 0.55916,0.2948 0.8925,0.65512 0.33334,0.36033 1.08768,0.86408 1.67631,1.11943 0.58862,0.25537 1.48862,0.7904 2,1.18897 0.51137,0.39858 1.31351,0.85155 1.78251,1.0066 0.46902,0.15505 1.20027,0.54543 1.625,0.86748 0.42475,0.32207 1.33783,0.77232 2.02907,1.00057 0.69125,0.22825 1.66108,0.68973 2.15517,1.02545 0.49409,0.33575 1.65297,0.78548 2.57528,0.99938 0.92232,0.21387 2.14956,0.66587 2.72721,1.0044 0.67151,0.39352 1.90413,0.75205 3.4179,0.99412 1.3022,0.20825 3.32388,0.67073 4.49263,1.0277 1.31036,0.40025 3.17924,0.73043 4.875,0.86128 3.56997,0.27547 16.77604,0.10345 18.875,-0.2459 z"
         id="path2248"
         inkscape:connector-curvature="0" />
    </g>
  </g>
</svg>
