<?xml version="1.0" encoding="UTF-8" standalone="no"?>
<!-- Created with Inkscape (http://www.inkscape.org/) -->

<svg
   xmlns:dc="http://purl.org/dc/elements/1.1/"
   xmlns:cc="http://creativecommons.org/ns#"
   xmlns:rdf="http://www.w3.org/1999/02/22-rdf-syntax-ns#"
   xmlns:svg="http://www.w3.org/2000/svg"
   xmlns="http://www.w3.org/2000/svg"
   xmlns:sodipodi="http://sodipodi.sourceforge.net/DTD/sodipodi-0.dtd"
   xmlns:inkscape="http://www.inkscape.org/namespaces/inkscape"
   width="40"
   height="40"
   id="svg3967"
   version="1.1"
   inkscape:version="0.48.4 r9939"
   sodipodi:docname="center.svg">
  <defs
     id="defs3969" />
  <sodipodi:namedview
     id="base"
     pagecolor="#000000"
     bordercolor="#666666"
     borderopacity="1.0"
     inkscape:pageopacity="0"
     inkscape:pageshadow="2"
     inkscape:zoom="7.919596"
     inkscape:cx="39.983155"
     inkscape:cy="7.1357789"
     inkscape:document-units="px"
     inkscape:current-layer="g570"
     showgrid="false"
     inkscape:window-width="1855"
     inkscape:window-height="1056"
     inkscape:window-x="1431"
     inkscape:window-y="24"
     inkscape:window-maximized="1" />
  <metadata
     id="metadata3972">
    <rdf:RDF>
      <cc:Work
         rdf:about="">
        <dc:format>image/svg+xml</dc:format>
        <dc:type
           rdf:resource="http://purl.org/dc/dcmitype/StillImage" />
        <dc:title />
      </cc:Work>
    </rdf:RDF>
  </metadata>
  <g
     inkscape:label="Layer 1"
     inkscape:groupmode="layer"
     id="layer1"
     transform="translate(0,-1012.3622)">
    <g
       id="g570"
       transform="matrix(1.1946412,0,0,-1.1945392,20.01553,1041.4993)">
      <path
         d="m 0,0 c -4.218,-0.008 -7.655,3.416 -7.663,7.634 -0.009,4.219 3.415,7.657 7.634,7.666 C 4.19,15.308 7.628,11.882 7.636,7.663 7.645,3.445 4.218,0.008 0,0 M 11.702,8.333 8.926,8.329 c -0.333,4.42 -3.873,7.946 -8.295,8.263 l -0.005,2.777 -1.325,-0.003 0.004,-2.777 C -5.113,16.255 -8.64,12.715 -8.956,8.294 l -2.776,-0.005 10e-4,-1.325 2.776,0.006 c 0.335,-4.419 3.875,-7.945 8.296,-8.262 l 0.005,-2.779 1.325,0.002 -0.006,2.779 c 4.42,0.334 7.945,3.874 8.264,8.295 l 2.777,0.004 -0.004,1.324 z"
         style="fill:#ffffff;fill-opacity:1;fill-rule:nonzero;stroke:none"
         id="path572"
         inkscape:connector-curvature="0" />
    </g>
  </g>
</svg>
