<?xml version="1.0" encoding="UTF-8" standalone="no"?>
<!-- Created with Inkscape (http://www.inkscape.org/) -->
<svg id="svg2" xmlns:rdf="http://www.w3.org/1999/02/22-rdf-syntax-ns#" xmlns="http://www.w3.org/2000/svg" xml:space="preserve" height="40" width="40" version="1.1" xmlns:cc="http://creativecommons.org/ns#" xmlns:dc="http://purl.org/dc/elements/1.1/"><metadata id="metadata8"><rdf:RDF><cc:Work rdf:about=""><dc:format>image/svg+xml</dc:format><dc:type rdf:resource="http://purl.org/dc/dcmitype/StillImage"/><dc:title/></cc:Work></rdf:RDF></metadata><g id="g10" stroke-miterlimit="4" stroke="#000" stroke-dasharray="none" transform="matrix(1.25,0,0,-1.25,0,40)"><g id="g5246" stroke-width="2.95300102" transform="matrix(0.81273252,0,0,0.81273252,-2.7542471,9.294326)"><g id="g4283" transform="translate(-0.74232171,-1.6083637)" stroke="#000" stroke-miterlimit="4" stroke-dasharray="none" fill="none"><path id="path4614" stroke-linejoin="round" style="color:#000000;enable-background:accumulate;" d="m20,5,12.99,7.5,0,15l-12.99,7.5-12.99-7.5,4E-7-15z" stroke-dashoffset="15" transform="matrix(0.8,0,0,-0.8,0,32)" stroke-linecap="butt" stroke-width="3.69125128"/><path id="path4616" stroke-linejoin="miter" stroke-width="2.95300102" stroke-linecap="round" d="m9.944,19.773,0-6.7977,0,0,0-0.61797"/><path id="path4618" stroke-linejoin="miter" stroke-width="2.95300102" stroke-linecap="round" d="m16.124,9.2677,6.1797,3.7078"/><path id="path4620" stroke-linejoin="miter" stroke-width="2.95300102" stroke-linecap="round" d="m16.124,22.863,6.1797-3.7078"/></g></g><path id="path3973" stroke-linejoin="round" d="M12.598,6.8881c2.377-0.6611,4.211-2.7155,5.688-5.6881,3.535,7.6731,7.21,15.078,12.514,19.339" stroke-linecap="round" stroke-width="2.4000001" fill="none"/></g></svg>
