<?xml version="1.0" encoding="UTF-8" standalone="no"?>
<!-- Created with Inkscape (http://www.inkscape.org/) -->

<svg
   xmlns:dc="http://purl.org/dc/elements/1.1/"
   xmlns:cc="http://creativecommons.org/ns#"
   xmlns:rdf="http://www.w3.org/1999/02/22-rdf-syntax-ns#"
   xmlns:svg="http://www.w3.org/2000/svg"
   xmlns="http://www.w3.org/2000/svg"
   xmlns:sodipodi="http://sodipodi.sourceforge.net/DTD/sodipodi-0.dtd"
   xmlns:inkscape="http://www.inkscape.org/namespaces/inkscape"
   id="svg2"
   version="1.1"
   inkscape:version="0.48.4 r9939"
   width="40"
   height="40"
   xml:space="preserve"
   sodipodi:docname="clean.svg"
   inkscape:export-filename="/home/herman/Documents/Developing/Web/HermanBergwerf/molview/img/action/fragment#fff.png"
   inkscape:export-xdpi="216"
   inkscape:export-ydpi="216"><metadata
     id="metadata8"><rdf:RDF><cc:Work
         rdf:about=""><dc:format>image/svg+xml</dc:format><dc:type
           rdf:resource="http://purl.org/dc/dcmitype/StillImage" /><dc:title /></cc:Work></rdf:RDF></metadata><defs
     id="defs6"><clipPath
       clipPathUnits="userSpaceOnUse"
       id="clipPath16"><path
         d="M 0,32 32,32 32,0 0,0 0,32 z"
         id="path18" /></clipPath><clipPath
       clipPathUnits="userSpaceOnUse"
       id="clipPath46"><path
         d="M 0,32 32,32 32,0 0,0 0,32 z"
         id="path48" /></clipPath><clipPath
       clipPathUnits="userSpaceOnUse"
       id="clipPath56"><path
         d="M 0,32 32,32 32,0 0,0 0,32 z"
         id="path58" /></clipPath><clipPath
       clipPathUnits="userSpaceOnUse"
       id="clipPath88"><path
         d="M 0,32 32,32 32,0 0,0 0,32 z"
         id="path90" /></clipPath><clipPath
       clipPathUnits="userSpaceOnUse"
       id="clipPath274"><path
         d="M 0,32 32,32 32,0 0,0 0,32 z"
         id="path276" /></clipPath><clipPath
       clipPathUnits="userSpaceOnUse"
       id="clipPath422"><path
         d="M 0,32 32,32 32,0 0,0 0,32 z"
         id="path424" /></clipPath><clipPath
       clipPathUnits="userSpaceOnUse"
       id="clipPath532"><path
         d="M 0,32 32,32 32,0 0,0 0,32 z"
         id="path534" /></clipPath><clipPath
       clipPathUnits="userSpaceOnUse"
       id="clipPath582"><path
         d="M 0,32 32,32 32,0 0,0 0,32 z"
         id="path584" /></clipPath><clipPath
       clipPathUnits="userSpaceOnUse"
       id="clipPath660"><path
         d="M 0,32 32,32 32,0 0,0 0,32 z"
         id="path662" /></clipPath><clipPath
       clipPathUnits="userSpaceOnUse"
       id="clipPath758"><path
         d="M 0,32 32,32 32,0 0,0 0,32 z"
         id="path760" /></clipPath><clipPath
       clipPathUnits="userSpaceOnUse"
       id="clipPath838"><path
         d="M 0,32 32,32 32,0 0,0 0,32 z"
         id="path840" /></clipPath><clipPath
       clipPathUnits="userSpaceOnUse"
       id="clipPath896"><path
         d="M 0,32 32,32 32,0 0,0 0,32 z"
         id="path898" /></clipPath></defs><sodipodi:namedview
     pagecolor="#ffffff"
     bordercolor="#666666"
     borderopacity="1"
     objecttolerance="10"
     gridtolerance="10"
     guidetolerance="10"
     inkscape:pageopacity="0"
     inkscape:pageshadow="2"
     inkscape:window-width="1855"
     inkscape:window-height="1056"
     id="namedview4"
     showgrid="true"
     inkscape:zoom="16"
     inkscape:cx="30.554538"
     inkscape:cy="16.370485"
     inkscape:window-x="1431"
     inkscape:window-y="24"
     inkscape:window-maximized="1"
     inkscape:current-layer="g10"><inkscape:grid
       type="xygrid"
       id="grid3984" /></sodipodi:namedview><g
     id="g10"
     inkscape:groupmode="layer"
     inkscape:label="Action_Bar_Icons"
     transform="matrix(1.25,0,0,-1.25,0,40)"><g
       id="g5246"
       transform="matrix(0.57153666,0,0,0.57153666,2.8522261,11.327516)"
       style="stroke:#ffffff;stroke-opacity:1;stroke-width:2.79947047000000016;stroke-miterlimit:4;stroke-dasharray:none"><g
         id="g4283"
         transform="translate(-0.74232171,-1.6083637)"
         style="stroke:#ffffff;stroke-opacity:1"><path
           sodipodi:type="star"
           style="color:#000000;fill:none;stroke:#ffffff;stroke-width:3.49933814999999981;stroke-linecap:butt;stroke-linejoin:round;stroke-miterlimit:4;stroke-opacity:1;stroke-dasharray:none;stroke-dashoffset:15;marker:none;visibility:visible;display:inline;overflow:visible;enable-background:accumulate"
           id="path4614"
           sodipodi:sides="6"
           sodipodi:cx="20"
           sodipodi:cy="20"
           sodipodi:r1="15"
           sodipodi:r2="12.990381"
           sodipodi:arg1="-1.5707963"
           sodipodi:arg2="-1.0471976"
           inkscape:flatsided="true"
           inkscape:rounded="0"
           inkscape:randomized="0"
           d="m 20,5 12.990381,7.5 0,15 L 20,35 7.0096187,27.5 l 4e-7,-15 z"
           transform="matrix(0.8,0,0,-0.8,0,32)" /><path
           style="fill:none;stroke:#ffffff;stroke-width:2.79947042000000001;stroke-linecap:round;stroke-linejoin:miter;stroke-miterlimit:4;stroke-opacity:1;stroke-dasharray:none"
           d="m 9.9440007,19.773244 0,-6.797691 0,0 0,-0.617972"
           id="path4616"
           inkscape:connector-curvature="0"
           sodipodi:nodetypes="cccc" /><path
           style="fill:none;stroke:#ffffff;stroke-width:2.79947042000000001;stroke-linecap:round;stroke-linejoin:miter;stroke-miterlimit:4;stroke-opacity:1;stroke-dasharray:none"
           d="m 16.12372,9.2677207 6.17972,3.7078323"
           id="path4618"
           inkscape:connector-curvature="0"
           sodipodi:nodetypes="cc" /><path
           style="fill:none;stroke:#ffffff;stroke-width:2.79947042000000001;stroke-linecap:round;stroke-linejoin:miter;stroke-miterlimit:4;stroke-opacity:1;stroke-dasharray:none"
           d="m 16.12372,22.863104 6.17972,-3.707832"
           id="path4620"
           inkscape:connector-curvature="0"
           sodipodi:nodetypes="cc" /></g></g><path
       style="fill:none;stroke:#ffffff;stroke-width:1.60000001999999997;stroke-linecap:round;stroke-linejoin:round;stroke-miterlimit:4;stroke-opacity:1;stroke-dasharray:none"
       d="m 13.648528,9.6353553 c 1.671074,-0.4648584 2.961075,-1.909616 4,-4 2.486055,5.3959417 5.069935,10.6032197 8.8,13.5999997"
       id="path3973"
       inkscape:connector-curvature="0"
       sodipodi:nodetypes="ccc" /></g></svg>