<?xml version="1.0" encoding="UTF-8" standalone="no"?>
<!-- Created with Inkscape (http://www.inkscape.org/) -->

<svg
   xmlns:dc="http://purl.org/dc/elements/1.1/"
   xmlns:cc="http://creativecommons.org/ns#"
   xmlns:rdf="http://www.w3.org/1999/02/22-rdf-syntax-ns#"
   xmlns:svg="http://www.w3.org/2000/svg"
   xmlns="http://www.w3.org/2000/svg"
   xmlns:sodipodi="http://sodipodi.sourceforge.net/DTD/sodipodi-0.dtd"
   xmlns:inkscape="http://www.inkscape.org/namespaces/inkscape"
   id="svg2"
   version="1.1"
   inkscape:version="0.48.4 r9939"
   width="40"
   height="40"
   xml:space="preserve"
   sodipodi:docname="deselect.svg"
   inkscape:export-filename="/home/herman/Documents/Developing/Web/HermanBergwerf/molview/img/action/sgroup.png"
   inkscape:export-xdpi="216"
   inkscape:export-ydpi="216"><metadata
     id="metadata8"><rdf:RDF><cc:Work
         rdf:about=""><dc:format>image/svg+xml</dc:format><dc:type
           rdf:resource="http://purl.org/dc/dcmitype/StillImage" /><dc:title /></cc:Work></rdf:RDF></metadata><defs
     id="defs6"><clipPath
       clipPathUnits="userSpaceOnUse"
       id="clipPath16"><path
         d="M 0,32 32,32 32,0 0,0 0,32 z"
         id="path18" /></clipPath><clipPath
       clipPathUnits="userSpaceOnUse"
       id="clipPath46"><path
         d="M 0,32 32,32 32,0 0,0 0,32 z"
         id="path48" /></clipPath><clipPath
       clipPathUnits="userSpaceOnUse"
       id="clipPath56"><path
         d="M 0,32 32,32 32,0 0,0 0,32 z"
         id="path58" /></clipPath><clipPath
       clipPathUnits="userSpaceOnUse"
       id="clipPath88"><path
         d="M 0,32 32,32 32,0 0,0 0,32 z"
         id="path90" /></clipPath><clipPath
       clipPathUnits="userSpaceOnUse"
       id="clipPath274"><path
         d="M 0,32 32,32 32,0 0,0 0,32 z"
         id="path276" /></clipPath><clipPath
       clipPathUnits="userSpaceOnUse"
       id="clipPath422"><path
         d="M 0,32 32,32 32,0 0,0 0,32 z"
         id="path424" /></clipPath><clipPath
       clipPathUnits="userSpaceOnUse"
       id="clipPath532"><path
         d="M 0,32 32,32 32,0 0,0 0,32 z"
         id="path534" /></clipPath><clipPath
       clipPathUnits="userSpaceOnUse"
       id="clipPath582"><path
         d="M 0,32 32,32 32,0 0,0 0,32 z"
         id="path584" /></clipPath><clipPath
       clipPathUnits="userSpaceOnUse"
       id="clipPath660"><path
         d="M 0,32 32,32 32,0 0,0 0,32 z"
         id="path662" /></clipPath><clipPath
       clipPathUnits="userSpaceOnUse"
       id="clipPath758"><path
         d="M 0,32 32,32 32,0 0,0 0,32 z"
         id="path760" /></clipPath><clipPath
       clipPathUnits="userSpaceOnUse"
       id="clipPath838"><path
         d="M 0,32 32,32 32,0 0,0 0,32 z"
         id="path840" /></clipPath><clipPath
       clipPathUnits="userSpaceOnUse"
       id="clipPath896"><path
         d="M 0,32 32,32 32,0 0,0 0,32 z"
         id="path898" /></clipPath><inkscape:path-effect
       effect="spiro"
       id="path-effect4689"
       is_visible="true" /></defs><sodipodi:namedview
     pagecolor="#ffffff"
     bordercolor="#666666"
     borderopacity="1"
     objecttolerance="10"
     gridtolerance="10"
     guidetolerance="10"
     inkscape:pageopacity="0"
     inkscape:pageshadow="2"
     inkscape:window-width="1855"
     inkscape:window-height="1056"
     id="namedview4"
     showgrid="true"
     inkscape:zoom="15.139543"
     inkscape:cx="10.484553"
     inkscape:cy="19.907711"
     inkscape:window-x="1431"
     inkscape:window-y="24"
     inkscape:window-maximized="1"
     inkscape:current-layer="g10"><inkscape:grid
       type="xygrid"
       id="grid3984" /></sodipodi:namedview><g
     id="g10"
     inkscape:groupmode="layer"
     inkscape:label="Action_Bar_Icons"
     transform="matrix(1.25,0,0,-1.25,0,40)"
     style="stroke:#ffff00;stroke-opacity:1"><g
       id="g7582"
       style="stroke:#ffffff;stroke-opacity:1"><path
         sodipodi:nodetypes="cc"
         inkscape:connector-curvature="0"
         id="path3146"
         d="M 7.2,24.8 24.8,7.2"
         style="fill:none;stroke:#ffffff;stroke-width:2.40000010000000019;stroke-linecap:round;stroke-linejoin:round;stroke-miterlimit:4;stroke-opacity:1;stroke-dasharray:none" /><path
         sodipodi:nodetypes="cc"
         transform="matrix(0.8,0,0,-0.8,0,32)"
         inkscape:connector-curvature="0"
         id="path3148"
         d="M 31,9 9,31"
         style="fill:none;stroke:#ffffff;stroke-width:3;stroke-linecap:round;stroke-linejoin:round;stroke-miterlimit:4;stroke-opacity:1;stroke-dasharray:none" /><path
         sodipodi:nodetypes="csssssc"
         inkscape:connector-curvature="0"
         inkscape:original-d="m 8.5455001,18.862664 c 0,0 10.3176909,0.524219 9.8404719,2.15077 -78.690158,268.207496 -8.8046327,-1.075383 1.03584,-2.688461 4.716552,-0.773149 0,2.150769 2.071678,-1.075386 2.071679,-3.226153 5.148848,-12.3119005 0,-7.5276919 C -118.50266,139.80358 18.385972,6.4957413 15.278454,9.1842027 12.170937,11.872665 8.0275804,14.561127 8.5455001,18.862664"
         inkscape:path-effect="#path-effect4689"
         id="path4687"
         d="m 8.5455001,18.862664 c -0.1559589,1.238322 0.1671177,2.530835 0.8873913,3.550134 0.7202736,1.019298 1.8307136,1.755432 3.0500336,2.021931 1.21932,0.266499 2.535619,0.06076 3.615464,-0.565096 1.079845,-0.625858 1.912696,-1.665727 2.287583,-2.856199 0.146067,-0.463842 0.224535,-0.94637 0.359165,-1.413659 0.13463,-0.46729 0.333354,-0.930396 0.676675,-1.274802 0.276385,-0.277258 0.631225,-0.462401 0.991557,-0.615444 0.360331,-0.153042 0.733047,-0.278833 1.080121,-0.459942 0.667948,-0.348547 1.225586,-0.900538 1.594375,-1.557526 0.368789,-0.656989 0.549298,-1.41605 0.531179,-2.16925 C 23.600926,12.76961 23.385871,12.02385 23.013599,11.368829 22.641326,10.713808 22.1136,10.149801 21.49349,9.7218951 20.605403,9.109072 19.536357,8.7799453 18.459482,8.7121982 17.382607,8.6444512 16.29812,8.8313141 15.278454,9.1842027 13.292817,9.8713966 11.535562,11.201964 10.335635,12.92683 9.1357087,14.651696 8.4992854,16.761985 8.5455001,18.862664"
         style="fill:none;stroke:#ffffff;stroke-width:1.60000000000000009;stroke-linecap:round;stroke-linejoin:miter;stroke-miterlimit:4;stroke-opacity:1;stroke-dasharray:3.20000000000000018, 3.20000000000000018;stroke-dashoffset:9.60000048000000028" /></g></g></svg>