<?xml version="1.0" encoding="UTF-8" standalone="no"?>
<!-- Created with Inkscape (http://www.inkscape.org/) -->

<svg
   xmlns:dc="http://purl.org/dc/elements/1.1/"
   xmlns:cc="http://creativecommons.org/ns#"
   xmlns:rdf="http://www.w3.org/1999/02/22-rdf-syntax-ns#"
   xmlns:svg="http://www.w3.org/2000/svg"
   xmlns="http://www.w3.org/2000/svg"
   xmlns:sodipodi="http://sodipodi.sourceforge.net/DTD/sodipodi-0.dtd"
   xmlns:inkscape="http://www.inkscape.org/namespaces/inkscape"
   id="svg2"
   version="1.1"
   inkscape:version="0.48.4 r9939"
   width="40"
   height="40"
   xml:space="preserve"
   sodipodi:docname="freehand.svg"
   inkscape:export-filename="/home/herman/Documents/Developing/Web/HermanBergwerf/molview/img/action/freehand.png"
   inkscape:export-xdpi="216"
   inkscape:export-ydpi="216"><metadata
     id="metadata8"><rdf:RDF><cc:Work
         rdf:about=""><dc:format>image/svg+xml</dc:format><dc:type
           rdf:resource="http://purl.org/dc/dcmitype/StillImage" /><dc:title></dc:title></cc:Work></rdf:RDF></metadata><defs
     id="defs6"><inkscape:path-effect
       effect="spiro"
       id="path-effect4689"
       is_visible="true" /><inkscape:path-effect
       effect="spiro"
       id="path-effect4681"
       is_visible="true" /><clipPath
       clipPathUnits="userSpaceOnUse"
       id="clipPath16"><path
         d="M 0,32 32,32 32,0 0,0 0,32 z"
         id="path18" /></clipPath><clipPath
       clipPathUnits="userSpaceOnUse"
       id="clipPath46"><path
         d="M 0,32 32,32 32,0 0,0 0,32 z"
         id="path48" /></clipPath><clipPath
       clipPathUnits="userSpaceOnUse"
       id="clipPath56"><path
         d="M 0,32 32,32 32,0 0,0 0,32 z"
         id="path58" /></clipPath><clipPath
       clipPathUnits="userSpaceOnUse"
       id="clipPath88"><path
         d="M 0,32 32,32 32,0 0,0 0,32 z"
         id="path90" /></clipPath><clipPath
       clipPathUnits="userSpaceOnUse"
       id="clipPath274"><path
         d="M 0,32 32,32 32,0 0,0 0,32 z"
         id="path276" /></clipPath><clipPath
       clipPathUnits="userSpaceOnUse"
       id="clipPath422"><path
         d="M 0,32 32,32 32,0 0,0 0,32 z"
         id="path424" /></clipPath><clipPath
       clipPathUnits="userSpaceOnUse"
       id="clipPath532"><path
         d="M 0,32 32,32 32,0 0,0 0,32 z"
         id="path534" /></clipPath><clipPath
       clipPathUnits="userSpaceOnUse"
       id="clipPath582"><path
         d="M 0,32 32,32 32,0 0,0 0,32 z"
         id="path584" /></clipPath><clipPath
       clipPathUnits="userSpaceOnUse"
       id="clipPath660"><path
         d="M 0,32 32,32 32,0 0,0 0,32 z"
         id="path662" /></clipPath><clipPath
       clipPathUnits="userSpaceOnUse"
       id="clipPath758"><path
         d="M 0,32 32,32 32,0 0,0 0,32 z"
         id="path760" /></clipPath><clipPath
       clipPathUnits="userSpaceOnUse"
       id="clipPath838"><path
         d="M 0,32 32,32 32,0 0,0 0,32 z"
         id="path840" /></clipPath><clipPath
       clipPathUnits="userSpaceOnUse"
       id="clipPath896"><path
         d="M 0,32 32,32 32,0 0,0 0,32 z"
         id="path898" /></clipPath></defs><sodipodi:namedview
     pagecolor="#ffffff"
     bordercolor="#666666"
     borderopacity="1"
     objecttolerance="10"
     gridtolerance="10"
     guidetolerance="10"
     inkscape:pageopacity="0"
     inkscape:pageshadow="2"
     inkscape:window-width="1855"
     inkscape:window-height="1056"
     id="namedview4"
     showgrid="true"
     inkscape:zoom="16.68772"
     inkscape:cx="11.480264"
     inkscape:cy="14.561111"
     inkscape:window-x="1431"
     inkscape:window-y="24"
     inkscape:window-maximized="1"
     inkscape:current-layer="g10"><inkscape:grid
       type="xygrid"
       id="grid3984" /></sodipodi:namedview><g
     id="g10"
     inkscape:groupmode="layer"
     inkscape:label="Action_Bar_Icons"
     transform="matrix(1.25,0,0,-1.25,0,40)"><path
       style="fill:none;stroke:#ffffff;stroke-width:1.60000000000000009;stroke-linecap:round;stroke-linejoin:miter;stroke-miterlimit:4;stroke-opacity:1;stroke-dasharray:3.20000000000000018, 3.20000000000000018;stroke-dashoffset:9.60000033000000030"
       d="m 5.533204,18.828531 c -0.1260073,1.714688 0.3937404,3.469184 1.4333653,4.838568 1.039625,1.369384 2.5899058,2.341508 4.2753797,2.680934 1.685474,0.339426 3.49119,0.04314 4.979823,-0.817092 1.488633,-0.860235 2.646977,-2.276792 3.194494,-3.906595 0.203639,-0.606175 0.325025,-1.237222 0.520962,-1.84593 0.195938,-0.608708 0.476825,-1.208381 0.940414,-1.648837 0.393975,-0.374316 0.896941,-0.612218 1.404736,-0.805799 0.507795,-0.19358 1.031499,-0.349966 1.518013,-0.592108 0.878609,-0.437291 1.612713,-1.151921 2.094884,-2.006724 0.48217,-0.854803 0.713643,-1.84544 0.684795,-2.826432 C 26.551222,10.917524 26.264777,9.9481829 25.777166,9.0964719 25.289554,8.2447609 24.603288,7.5107123 23.800391,6.9463252 22.553647,6.0699412 21.038268,5.6099954 19.516504,5.5284262 17.994739,5.446857 16.466505,5.7325736 15.03214,6.247371 12.415155,7.1866138 10.082525,8.9029207 8.4071573,11.121914 6.7317895,13.340906 5.719882,16.054376 5.533204,18.828531"
       id="path4687"
       inkscape:path-effect="#path-effect4689"
       inkscape:original-d="m 5.533204,18.828531 c 0,0 14.556328,0.681439 13.883062,2.795815 C -91.6008,370.27083 6.9945793,20.226441 20.877642,18.129579 c 6.65417,-1.005027 0,2.795814 2.922749,-1.397907 2.922751,-4.19372 7.26406,-16.00440368 0,-9.7853468 C -173.70794,176.04123 19.416266,2.752604 15.03214,6.247371 10.648016,9.742138 4.8025165,13.236906 5.533204,18.828531"
       inkscape:connector-curvature="0"
       sodipodi:nodetypes="csssssc" /></g></svg>