<?xml version="1.0" encoding="UTF-8" standalone="no"?>
<!-- Created with Inkscape (http://www.inkscape.org/) -->

<svg
   xmlns:osb="http://www.openswatchbook.org/uri/2009/osb"
   xmlns:dc="http://purl.org/dc/elements/1.1/"
   xmlns:cc="http://creativecommons.org/ns#"
   xmlns:rdf="http://www.w3.org/1999/02/22-rdf-syntax-ns#"
   xmlns:svg="http://www.w3.org/2000/svg"
   xmlns="http://www.w3.org/2000/svg"
   xmlns:sodipodi="http://sodipodi.sourceforge.net/DTD/sodipodi-0.dtd"
   xmlns:inkscape="http://www.inkscape.org/namespaces/inkscape"
   id="svg3058"
   version="1.1"
   inkscape:version="0.48.4 r9939"
   width="40"
   height="40"
   sodipodi:docname="MolSoft.svg"
   inkscape:export-filename="/var/www/HermanBergwerf/molview/img/MolSoft_mono.png"
   inkscape:export-xdpi="151.57895"
   inkscape:export-ydpi="151.57895">
  <metadata
     id="metadata3064">
    <rdf:RDF>
      <cc:Work
         rdf:about="">
        <dc:format>image/svg+xml</dc:format>
        <dc:type
           rdf:resource="http://purl.org/dc/dcmitype/StillImage" />
        <dc:title />
      </cc:Work>
    </rdf:RDF>
  </metadata>
  <defs
     id="defs3062">
    <linearGradient
       id="linearGradient3762"
       osb:paint="solid">
      <stop
         style="stop-color:#ffffff;stop-opacity:1;"
         offset="0"
         id="stop3764" />
    </linearGradient>
    <inkscape:path-effect
       effect="envelope"
       id="path-effect3935"
       is_visible="true"
       yy="true"
       xx="true"
       bendpath1="m 43.501148,10.389879 64.326162,0"
       bendpath2="m 107.82731,10.389879 0,76.821177"
       bendpath3="m 43.501148,87.211056 64.326162,0"
       bendpath4="m 43.501148,10.389879 0,76.821177" />
    <inkscape:path-effect
       effect="sketch"
       id="path-effect3933"
       is_visible="true"
       nbiter_approxstrokes="5"
       strokelength="100"
       strokelength_rdm="0.3;1"
       strokeoverlap="0.3"
       strokeoverlap_rdm="0.3;1"
       ends_tolerance="0.1;1"
       parallel_offset="5;1"
       tremble_size="5;1"
       tremble_frequency="1"
       nbtangents="5"
       tgt_places_rdmness="1;1"
       tgtscale="10"
       tgtlength="100"
       tgtlength_rdm="0.3;1" />
    <inkscape:path-effect
       effect="sketch"
       id="path-effect3931"
       is_visible="true"
       nbiter_approxstrokes="5"
       strokelength="100"
       strokelength_rdm="0.3;1"
       strokeoverlap="0.3"
       strokeoverlap_rdm="0.3;1"
       ends_tolerance="0.1;1"
       parallel_offset="5;1"
       tremble_size="5;1"
       tremble_frequency="1"
       nbtangents="5"
       tgt_places_rdmness="1;1"
       tgtscale="10"
       tgtlength="100"
       tgtlength_rdm="0.3;1" />
    <inkscape:path-effect
       effect="vonkoch"
       id="path-effect3929"
       is_visible="true"
       ref_path="m 43.501148,48.800467 64.326162,0"
       generator="m 43.501148,87.211056 21.442054,0 m 21.442054,0 21.442054,0"
       similar_only="false"
       nbgenerations="1"
       drawall="true"
       maxComplexity="1000" />
    <inkscape:path-effect
       effect="vonkoch"
       id="path-effect3927"
       is_visible="true"
       ref_path="m 43.501148,48.800467 64.326162,0"
       generator="m 43.501148,87.211056 21.442054,0 m 21.442054,0 21.442054,0"
       similar_only="false"
       nbgenerations="3"
       drawall="true"
       maxComplexity="1000" />
    <inkscape:path-effect
       effect="vonkoch"
       id="path-effect3925"
       is_visible="true"
       ref_path="m 43.501148,48.800467 64.326162,0"
       generator="m 43.501148,87.211056 21.442054,0 m 21.442054,0 21.442054,0"
       similar_only="false"
       nbgenerations="1"
       drawall="true"
       maxComplexity="1000" />
    <inkscape:path-effect
       effect="spiro"
       id="path-effect3901"
       is_visible="true" />
  </defs>
  <sodipodi:namedview
     pagecolor="#ffffff"
     bordercolor="#666666"
     borderopacity="1"
     objecttolerance="10"
     gridtolerance="10"
     guidetolerance="10"
     inkscape:pageopacity="0"
     inkscape:pageshadow="2"
     inkscape:window-width="1855"
     inkscape:window-height="1056"
     id="namedview3060"
     showgrid="false"
     inkscape:zoom="12.223684"
     inkscape:cx="23.142102"
     inkscape:cy="15.231059"
     inkscape:window-x="1431"
     inkscape:window-y="24"
     inkscape:window-maximized="1"
     inkscape:current-layer="g6291" />
  <g
     id="g6291"
     transform="matrix(0.1837195,0,0,0.18585356,5.9655526,5.7851068)">
    <path
       id="path3074-1"
       d="M 76.53125,1.15625 C 33.736362,1.15625 0.1875,35.5915 0.1875,76.5 c 0,40.9085 33.548862,75.3125 76.34375,75.3125 42.79488,0 76.0625,-34.404 76.0625,-75.3125 0,-40.9085 -33.26761,-75.34375 -76.0625,-75.34375 z m 15.75,9.6875 3.75,1.875 1.625,4.625 -0.40625,3.375 -4,4.03125 -13.40625,5.78125 -22.46875,9.25 L 46.5,43.9375 43.5,48.09375 43.96875,74.25 49.0625,78.40625 56,81.875 69.1875,87.21875 55.53125,79.125 51.125,74.25 l 0,-3.25 9.96875,-6.21875 23.375,-9.03125 19.65625,-7.875 3.6875,-4.84375 -0.125,-13.84375 c 14.54066,10.149418 24.25,27.288829 24.25,47.3125 0,32.33276 -25.34515,57.15625 -55.40625,57.15625 -6.013573,0 -11.85437,-0.99569 -17.34375,-2.84375 L 58,132.78125 l -0.125,7.4375 0.5625,2.4375 -3.375,-1.3125 -1.40625,-1.5 -0.71875,-3.09375 0.71875,-2.625 3.125,-3.75 1.0625,-0.84375 13.4375,-6.5 25.21875,-9.3125 7.15625,-2.78125 3.9375,-5.59375 -0.46875,-26.25 -3.6875,-4.4375 -8.34375,-3.25 -15.3125,-5.6875 15.78125,8.46875 2.09375,4.90625 L 96.25,83.5 90,88.625 64.5625,100 46.28125,106.5 43.5,111.875 43.5,122.5 C 29.871368,112.22461 20.84375,95.692287 20.84375,76.5 c 0,-32.332761 25.626391,-57.15625 55.6875,-57.15625 4.697047,0 9.268168,0.603964 13.65625,1.75 l 2.5,-1.5 0.21875,-6.25 -0.625,-2.5 z"
       style="font-size:medium;font-style:normal;font-variant:normal;font-weight:normal;font-stretch:normal;text-indent:0;text-align:start;text-decoration:none;line-height:normal;letter-spacing:normal;word-spacing:normal;text-transform:none;direction:ltr;block-progression:tb;writing-mode:lr-tb;text-anchor:start;baseline-shift:baseline;color:#000000;fill:#ffffff;fill-opacity:1;stroke:none;stroke-width:2.15166759000000019;marker:none;visibility:visible;display:inline;overflow:visible;enable-background:accumulate;font-family:Sans;-inkscape-font-specification:Sans;stroke-opacity:1"
       inkscape:connector-curvature="0" />
    <path
       d="m 82.027433,77.377022 c 0,4.34495 -3.081993,7.867229 -6.883825,7.867229 -3.801832,0 -6.883825,-3.522279 -6.883825,-7.867229 0,-4.344951 3.081993,-7.867229 6.883825,-7.867229 3.801832,0 6.883825,3.522278 6.883825,7.867229 z"
       sodipodi:ry="7.867229"
       sodipodi:rx="6.8838253"
       sodipodi:cy="77.377022"
       sodipodi:cx="75.143608"
       id="path3074-7"
       style="fill:#ffffff;fill-opacity:1;fill-rule:evenodd;stroke:none"
       sodipodi:type="arc"
       transform="matrix(1.8571429,0,0,1.6397059,-64.929435,-50.713331)" />
  </g>
</svg>
