<?xml version="1.0" encoding="UTF-8" standalone="no"?>
<!-- Created with Inkscape (http://www.inkscape.org/) -->

<svg
   xmlns:dc="http://purl.org/dc/elements/1.1/"
   xmlns:cc="http://creativecommons.org/ns#"
   xmlns:rdf="http://www.w3.org/1999/02/22-rdf-syntax-ns#"
   xmlns:svg="http://www.w3.org/2000/svg"
   xmlns="http://www.w3.org/2000/svg"
   xmlns:sodipodi="http://sodipodi.sourceforge.net/DTD/sodipodi-0.dtd"
   xmlns:inkscape="http://www.inkscape.org/namespaces/inkscape"
   width="30"
   height="30"
   id="svg4802"
   version="1.1"
   inkscape:version="0.48.4 r9939"
   sodipodi:docname="rotate.svg">
  <defs
     id="defs4804" />
  <sodipodi:namedview
     id="base"
     pagecolor="#ffffff"
     bordercolor="#666666"
     borderopacity="1.0"
     inkscape:pageopacity="0.0"
     inkscape:pageshadow="2"
     inkscape:zoom="7.9195959"
     inkscape:cx="25.692443"
     inkscape:cy="7.876494"
     inkscape:document-units="px"
     inkscape:current-layer="g490"
     showgrid="false"
     inkscape:window-width="1855"
     inkscape:window-height="1056"
     inkscape:window-x="1431"
     inkscape:window-y="24"
     inkscape:window-maximized="1" />
  <metadata
     id="metadata4807">
    <rdf:RDF>
      <cc:Work
         rdf:about="">
        <dc:format>image/svg+xml</dc:format>
        <dc:type
           rdf:resource="http://purl.org/dc/dcmitype/StillImage" />
        <dc:title></dc:title>
      </cc:Work>
    </rdf:RDF>
  </metadata>
  <g
     inkscape:label="Layer 1"
     inkscape:groupmode="layer"
     id="layer1"
     transform="translate(0,-1022.3622)">
    <g
       id="g490"
       transform="matrix(1.3763076,0,0,-1.3763135,22.473221,1045.4683)">
      <path
         d="M -0.34261748,0.39268496 C -1.0874175,-0.24758173 -1.9330175,-0.72264842 -2.8560842,-1.0222484 -3.5775509,-1.2546485 -4.3270176,-1.3731818 -5.078351,-1.3731818 c -0.1838666,0.00187 -0.364,0.00747 -0.5385333,0.021467 -0.9501334,0.07 -1.8564001,0.3182667 -2.6945334,0.73173335 -0.8689334,0.42840002 -1.6352001,1.02480004 -2.2792003,1.77053335 -0.6412,0.7420001 -1.116267,1.5885334 -1.415867,2.5116001 -0.2296,0.7149334 -0.3472,1.4653334 -0.3472,2.2269334 0,0.1801334 0.0065,0.3602667 0.02053,0.5469334 0.06907,0.9389334 0.3164,1.8396001 0.731733,2.6796 0.430267,0.8717334 1.026667,1.6380005 1.7677335,2.2782665 0.7429334,0.6412 1.5885334,1.1172 2.5116001,1.415867 0.8680001,0.278133 1.8050668,0.3808 2.7804001,0.328533 0.9212001,-0.06813 1.8452001,-0.321066 2.6740001,-0.731733 0.6486667,-0.320133 1.29640005,-0.802667 1.81720009,-1.297333 l -0.0112,-0.0075 L -1.9106175,9.5272185 4.4957827,8.0096186 4.015116,14.573752 2.1484493,12.985219 l -0.013067,-0.0084 c -0.8017333,0.818533 -1.73693336,1.532533 -2.76080009,2.036533 -1.17786671,0.5852 -2.44440001,0.930533 -3.77253341,1.028533 -1.2870667,0.0756 -2.6170668,-0.06067 -3.8602668,-0.462933 -1.3001334,-0.419067 -2.4873333,-1.085467 -3.5242673,-1.9824 -1.0416,-0.896 -1.875066,-1.970267 -2.478933,-3.192 -0.5796,-1.1806668 -0.924933,-2.4462668 -1.022,-3.7650668 -0.01867,-0.2510667 -0.028,-0.5002667 -0.028,-0.7504001 0,-1.0612 0.1652,-2.1112 0.489067,-3.1192001 0.4172,-1.2992 1.0836,-2.48173338 1.9796,-3.52146675 0.895066,-1.03880005 1.9712,-1.87133345 3.1938665,-2.47706675 1.1816001,-0.5833334 2.4481335,-0.9286667 3.7632002,-1.0257334 0.2370667,-0.017733 0.476,-0.028 0.7130667,-0.028 l 0.048533,0 c 1.0602667,0 2.1065334,0.1661333 3.1080001,0.4909334 1.29733338,0.4162666 2.48173345,1.0826667 3.5242668,1.9796 1.0406667,0.89786674 1.8732001,1.97026678 2.4761334,3.1938668 L 1.4251159,2.6700184 C 0.9929826,1.801085 0.40031591,1.0348183 -0.34261748,0.39268496"
         style="fill:#000000;fill-opacity:1;fill-rule:nonzero;stroke:none"
         id="path492"
         inkscape:connector-curvature="0" />
    </g>
  </g>
</svg>
